<svg version="1.1" id="Layer_1" xmlns="http://www.w3.org/2000/svg" xmlns:xlink="http://www.w3.org/1999/xlink" x="0px" y="0px"
	 width="100%" viewBox="0 0 944 944" enable-background="new 0 0 944 944" xml:space="preserve">
<path fill="#000000" opacity="1.000000" stroke="none" 
	d="
M190.037247,491.846436 
	C190.691620,497.617828 191.200638,503.410492 192.042816,509.154358 
	C192.826309,514.498047 193.964752,519.789795 194.991653,525.945374 
	C198.289825,538.312195 201.588013,550.679016 204.984436,563.829773 
	C205.324905,565.077759 205.514023,566.392273 206.029205,567.563416 
	C211.377594,579.722229 216.778503,591.857971 222.256699,604.699768 
	C230.797836,618.145935 239.338989,631.592163 248.172073,645.657654 
	C248.985565,646.479797 249.908539,647.219727 250.596207,648.136230 
	C261.474884,662.634583 273.891571,675.653564 288.225891,687.718018 
	C294.618439,692.780212 300.650787,698.403992 307.480682,702.784241 
	C320.561707,711.173645 334.095978,718.856323 347.919373,727.345947 
	C355.048187,730.464539 362.091675,733.798523 369.321014,736.663452 
	C396.954590,747.614502 425.691376,754.259399 455.307861,755.798950 
	C479.190491,757.040588 503.062683,755.938354 526.728821,751.147095 
	C552.236938,745.982849 576.575623,737.768677 600.484741,726.058777 
	C609.223999,721.057068 618.338013,716.600830 626.609802,710.918457 
	C637.460327,703.464539 647.646790,695.043762 658.734985,686.766113 
	C660.267883,685.567078 661.923767,684.495117 663.314636,683.149353 
	C676.902344,670.003113 690.088135,656.490417 701.719788,640.717163 
	C710.091309,626.811584 718.462769,612.906067 727.169006,598.337585 
	C728.593079,595.258606 730.222412,592.256165 731.404236,589.086853 
	C735.629578,577.755615 739.703247,566.367798 744.186951,554.314392 
	C744.300842,554.193237 744.487000,554.088257 744.518250,553.948608 
	C747.675537,539.854370 751.100586,525.808044 753.668518,511.606781 
	C754.057556,509.455505 750.988037,505.658325 748.571838,504.272614 
	C745.384766,502.444794 741.035767,505.192566 740.167053,508.841370 
	C739.376953,512.159973 739.268738,515.639648 738.497253,518.964172 
	C735.708435,530.982056 732.766724,542.964539 729.248596,555.355835 
	C723.696960,568.947754 718.145386,582.539734 712.095642,596.694824 
	C708.132202,603.611145 704.397888,610.672241 700.144775,617.405640 
	C695.300232,625.075378 689.992798,632.452759 684.274414,640.235107 
	C678.590942,646.582214 673.186035,653.209045 667.158203,659.210144 
	C658.323425,668.005737 649.042664,676.353455 639.250488,685.001160 
	C624.718384,696.080444 609.539490,706.140564 592.986633,713.978821 
	C584.361877,718.062805 575.633728,721.928284 566.166626,725.988220 
	C555.091248,729.168030 544.153870,733.007629 532.905273,735.358765 
	C519.186462,738.226135 505.256683,741.128662 491.326263,741.675415 
	C473.851654,742.361267 456.215942,741.397278 438.779083,739.764343 
	C426.202881,738.586670 413.735687,735.575745 401.412018,732.589539 
	C392.130981,730.340698 383.154633,726.834473 373.688293,723.255188 
	C358.332672,715.475403 342.788788,708.039185 327.700195,699.772034 
	C320.057068,695.584412 313.235992,689.896423 305.772095,684.271057 
	C292.126160,670.848633 278.480225,657.426270 264.773407,643.333740 
	C262.126648,640.050720 259.230896,636.935791 256.879822,633.453125 
	C249.843567,623.030396 243.020508,612.463806 236.006424,601.223328 
	C230.282776,588.482300 224.559113,575.741333 218.952896,562.235962 
	C215.579498,550.157837 212.206100,538.079773 208.940262,525.195740 
	C207.238602,513.463745 205.536942,501.731781 203.974762,489.071686 
	C203.928314,477.380951 203.881882,465.690216 203.976807,453.157135 
	C204.837982,446.730255 205.564926,440.281769 206.593231,433.881744 
	C207.980408,425.248291 209.599518,416.652130 211.761017,407.618622 
	C212.123596,406.200531 212.382675,404.746155 212.864761,403.369904 
	C217.925537,388.922272 223.021957,374.487122 228.716553,359.695251 
	C236.428589,342.817780 246.108017,327.100128 257.145172,311.387054 
	C262.406525,305.117004 267.354492,298.546783 273.003967,292.648499 
	C281.104156,284.191528 289.716187,276.224792 298.717957,267.765320 
	C303.028076,264.208832 307.182037,260.440094 311.676270,257.133911 
	C327.950806,245.161499 345.442230,235.228699 364.312042,226.219131 
	C380.592926,220.953949 396.667358,214.874054 413.219543,210.679489 
	C426.641266,207.278214 440.574371,205.146164 454.395538,204.276688 
	C468.749939,203.373672 483.309448,203.918686 497.654999,205.210236 
	C511.293152,206.438126 524.864929,209.001587 538.287354,211.826096 
	C547.994202,213.868729 557.408997,217.299057 567.330994,220.724457 
	C586.949707,228.012924 605.320740,237.749161 623.242249,249.651245 
	C627.744263,252.849442 632.516541,255.731934 636.694824,259.308380 
	C646.907776,268.050262 656.846130,277.113007 667.183411,286.654968 
	C681.066284,300.225525 692.032776,316.090179 703.004639,332.757446 
	C705.380310,336.988312 708.015137,341.096802 710.082153,345.473450 
	C715.810852,357.603363 721.302979,369.844971 726.986633,382.825714 
	C728.339600,387.171906 729.881226,391.469818 731.008423,395.873779 
	C733.828369,406.891296 736.460388,417.956848 739.034241,429.858673 
	C739.698914,436.363098 740.443970,442.860626 741.002808,449.374115 
	C741.452209,454.612305 741.699219,459.868500 741.993835,465.119080 
	C742.272766,470.090546 745.404724,473.184784 750.044312,473.001282 
	C754.276855,472.833923 756.304382,470.590820 755.937439,465.251038 
	C755.083435,452.822632 753.888916,440.417633 752.670288,427.222229 
	C752.454102,426.623291 752.187256,426.037415 752.029175,425.423523 
	C748.384766,411.272278 744.752136,397.117950 741.019470,382.180298 
	C735.371277,363.708313 727.377686,346.310120 717.002502,329.235931 
	C707.638000,312.391693 695.924744,297.267578 682.819275,282.344025 
	C673.871338,273.720520 665.059937,264.948547 655.911621,256.543091 
	C651.985596,252.935852 647.359863,250.090179 642.763855,246.283234 
	C635.101440,240.979111 627.712524,235.209991 619.702087,230.497452 
	C611.142029,225.461548 601.995544,221.422516 592.739807,216.331757 
	C589.753479,215.004715 586.773315,213.663559 583.779846,212.352829 
	C554.240051,199.418488 523.207520,192.346191 491.173767,190.212097 
	C477.487518,189.300308 463.576843,189.890045 449.900909,191.192062 
	C434.782440,192.631393 419.612427,194.788773 404.830322,198.211624 
	C381.722595,203.562317 359.474335,211.644943 338.230408,224.001343 
	C326.898224,231.090591 315.255981,237.738617 304.335022,245.413055 
	C296.064484,251.224976 288.713959,258.346161 280.346802,265.177612 
	C265.352112,279.467682 251.516418,294.760254 239.289474,312.303192 
	C230.914810,327.535980 222.540146,342.768768 213.830353,358.665039 
	C208.275452,375.110321 202.720551,391.555603 197.030060,408.817413 
	C196.019226,414.060944 194.809860,419.275574 194.040527,424.554291 
	C192.612930,434.349487 191.442291,444.182098 190.029694,454.928162 
	C190.074921,466.952057 190.120163,478.975952 190.037247,491.846436 
M657.321045,224.096954 
	C655.454712,222.806595 653.647827,221.418518 651.712341,220.241989 
	C640.507996,213.431473 629.273376,206.670837 617.697876,199.283508 
	C617.234619,199.110855 616.764526,198.954315 616.309021,198.763229 
	C601.538940,192.566895 586.770142,186.367233 571.325806,179.820145 
	C559.426880,176.542725 547.607361,172.927551 535.601318,170.106155 
	C527.538879,168.211502 519.212280,167.441040 510.159576,166.024750 
	C504.160553,165.349396 498.171936,164.231155 492.160400,164.090286 
	C479.394867,163.791183 466.613708,163.822021 453.846649,164.087570 
	C448.541534,164.197906 443.256042,165.254562 437.073517,165.974121 
	C432.666992,166.347015 428.163055,166.263168 423.872253,167.178513 
	C411.026276,169.918945 398.164215,172.687088 385.503754,176.157135 
	C377.127655,178.452896 369.087616,181.974670 360.135315,184.992828 
	C359.637268,185.030624 359.084137,184.939270 358.649017,185.124710 
	C335.377747,195.042404 313.190887,206.809555 292.556976,221.626480 
	C270.671844,237.341858 251.394684,255.629501 234.151627,276.255127 
	C216.147339,297.791382 201.929901,321.617340 190.013275,347.733704 
	C189.090591,349.642639 188.048843,351.503967 187.263031,353.467682 
	C174.587799,385.142639 166.498596,417.897247 164.033142,452.928314 
	C164.157074,474.996979 162.851852,497.133423 167.036362,519.834656 
	C170.345078,534.286499 173.348557,548.817871 177.087616,563.157532 
	C179.040909,570.648560 182.287918,577.802246 184.995682,585.870239 
	C191.703476,604.080200 200.429688,621.266724 211.105652,638.193115 
	C214.769531,643.592712 218.123276,649.237854 222.163651,654.339294 
	C229.886978,664.090698 238.001190,673.532593 246.229767,683.706116 
	C255.060287,692.209717 263.686157,700.941162 272.799713,709.129761 
	C278.091156,713.884155 284.165894,717.766724 290.187561,722.668030 
	C307.854492,735.904602 327.008118,746.593933 347.743622,755.981873 
	C357.900848,759.862488 367.914917,764.191528 378.256866,767.493591 
	C387.978546,770.597717 398.046448,772.617615 408.395111,775.776611 
	C411.300995,776.208069 414.242767,776.474487 417.106873,777.097961 
	C435.206177,781.037781 453.504639,782.562622 472.930176,781.970520 
	C480.551483,781.961487 488.231750,782.550781 495.780640,781.806946 
	C507.900635,780.612671 519.933777,778.536621 532.795959,776.945618 
	C541.890625,774.629456 551.134888,772.774475 560.042969,769.883301 
	C571.845886,766.052490 583.385925,761.411743 595.788391,756.999329 
	C607.942566,750.774292 620.329651,744.959961 632.197815,738.230347 
	C651.167297,727.474121 668.384460,714.231079 684.239563,699.251038 
	C699.718140,684.626770 713.953125,668.885742 726.080261,651.352539 
	C737.297363,635.135010 747.292358,618.191956 755.752014,599.671204 
	C759.048401,591.036438 762.890076,582.563782 765.516541,573.729858 
	C769.713318,559.613892 773.102783,545.257996 776.979065,530.184082 
	C778.652161,518.080750 781.071106,506.022064 781.799438,493.862091 
	C782.612366,480.289948 781.889771,466.625793 781.978271,452.140167 
	C780.273865,438.998749 778.983154,425.785461 776.716431,412.741760 
	C775.258057,404.349548 772.365173,396.206604 770.025330,387.146454 
	C764.896484,367.854767 757.941772,349.289215 747.989441,331.166718 
	C743.446594,323.071198 739.117310,314.845642 734.293579,306.921112 
	C730.399719,300.524292 725.967529,294.449829 721.665894,288.308197 
	C717.860779,282.875336 713.655762,281.816010 709.233948,284.970917 
	C705.209290,287.842468 705.245544,292.649963 709.244812,297.758698 
	C710.950928,299.938232 712.678345,302.128906 714.118530,304.484253 
	C721.754822,316.973419 729.302979,329.516510 736.999390,342.770813 
	C745.896606,360.460022 752.250793,379.109680 757.983032,398.850372 
	C758.304565,399.928467 758.710938,400.989258 758.934998,402.087250 
	C763.241455,423.190247 767.265564,444.331116 767.031067,466.930573 
	C767.022156,468.093384 766.984253,469.256836 767.008728,470.418945 
	C767.369690,487.552216 766.551514,504.581482 763.070312,521.431213 
	C761.459412,529.228516 760.268005,537.112610 758.236328,545.359436 
	C757.830627,546.762756 757.387451,548.156433 757.024719,549.570740 
	C750.356079,575.568665 739.865723,599.959290 725.854065,623.646790 
	C722.488159,629.346497 719.705872,635.507812 715.636963,640.651428 
	C706.695312,651.954651 697.633606,663.256165 687.632141,673.602478 
	C676.949219,684.653687 665.608215,695.198242 653.660950,704.858948 
	C643.078491,713.416138 631.269592,720.456421 619.306641,728.239624 
	C617.226318,729.488159 615.196777,730.832275 613.057678,731.970337 
	C592.958557,742.663818 571.946716,751.083496 549.222778,757.045959 
	C548.306763,757.361145 547.408630,757.748718 546.472046,757.980957 
	C525.294678,763.232239 503.877899,766.814697 481.073639,767.027466 
	C478.914032,767.018311 476.754364,767.013489 474.594788,766.999268 
	C466.627533,766.946899 458.623108,767.355713 450.702332,766.721191 
	C440.467560,765.901306 430.299622,764.247070 419.668335,762.268311 
	C412.982117,760.849365 406.147766,759.912537 399.639984,757.912842 
	C385.352966,753.522644 371.231201,748.594727 356.685608,743.260193 
	C336.861664,735.066528 318.562897,724.167786 300.715271,711.288818 
	C292.934326,705.150940 284.872192,699.331726 277.451324,692.785706 
	C269.982941,686.197815 263.152222,678.886902 255.772751,671.284973 
	C244.887741,657.175537 234.002747,643.066162 223.005997,628.242249 
	C219.061859,621.329224 214.770599,614.587463 211.256012,607.462585 
	C206.154495,597.120544 201.613708,586.501892 196.945282,575.237793 
	C196.400497,573.715576 195.838425,572.199341 195.313538,570.670288 
	C188.314957,550.283081 183.252670,529.447937 180.927521,507.166504 
	C180.285645,501.824371 179.077881,496.479218 179.106369,491.140656 
	C179.197281,474.105835 179.747391,457.073425 180.788193,439.547028 
	C181.513748,434.537048 182.216095,429.523590 182.968719,424.517670 
	C187.317108,395.595947 196.423721,368.193390 209.479553,342.079895 
	C213.193298,334.651855 217.226501,327.383575 221.733734,319.742706 
	C222.859909,317.954071 223.946823,316.139313 225.118271,314.380829 
	C239.080658,293.421753 254.225128,273.427979 273.543823,257.024963 
	C283.907501,248.225388 294.186737,239.211105 305.316833,231.460938 
	C317.053986,223.288055 329.758942,216.505142 342.768585,208.998047 
	C347.648651,206.745041 352.375763,204.041611 357.437225,202.322800 
	C373.116089,196.998505 388.853149,191.819412 404.708710,187.053192 
	C412.309448,184.768402 420.227753,183.540131 428.849762,181.964020 
	C439.978882,180.975952 451.093750,179.428940 462.240814,179.144638 
	C475.480682,178.806931 488.748230,179.555283 502.850922,179.965286 
	C510.571259,181.141068 518.368530,181.954926 525.994324,183.575714 
	C538.042175,186.136398 549.974976,189.238327 562.359741,192.738678 
	C577.691406,199.062408 593.023010,205.386124 608.996033,211.978165 
	C613.244446,214.393814 617.566040,216.690521 621.725891,219.250107 
	C630.160706,224.440033 638.507935,229.772293 647.188110,235.666351 
	C656.049377,243.192871 664.903015,250.728531 673.784302,258.231354 
	C674.646362,258.959656 675.686279,259.475494 676.633179,260.105774 
	C680.776978,262.863861 684.346802,262.602203 687.151794,259.327271 
	C689.930969,256.082642 689.907593,252.104065 686.243530,248.858337 
	C676.927490,240.605850 667.341858,232.657639 657.321045,224.096954 
M456.929871,810.966980 
	C471.620758,810.589294 486.311646,810.211609 501.873138,809.966431 
	C510.951141,808.793518 520.068237,807.857971 529.094604,806.371521 
	C536.122192,805.214294 543.036865,803.371216 550.819580,801.964966 
	C557.269592,800.307800 563.851990,799.040833 570.140015,796.906494 
	C580.869812,793.264526 591.414856,789.078369 602.803040,785.017090 
	C621.577026,777.614624 639.421997,768.441284 656.812317,756.985657 
	C662.515198,752.995667 668.460815,749.307190 673.869812,744.952209 
	C684.768494,736.177490 695.375000,727.039917 706.706543,717.776978 
	C717.161804,706.322449 727.967529,695.162842 737.945740,683.306885 
	C744.303955,675.752258 749.435730,667.165527 755.742065,658.746399 
	C768.017273,639.820129 778.499512,619.961060 787.177795,598.311646 
	C790.999146,587.128235 795.154175,576.044373 798.529114,564.727844 
	C800.934998,556.660767 802.291687,548.280701 804.787292,539.596375 
	C805.578247,534.271118 806.583679,528.967346 807.117981,523.616455 
	C808.468811,510.088257 809.607910,496.538849 810.971069,482.070007 
	C810.312683,465.499451 809.752258,448.923981 808.916687,432.362366 
	C808.741089,428.881775 807.554504,425.452179 806.972229,421.147675 
	C803.403992,405.308197 800.469482,389.292542 796.125916,373.668610 
	C788.760254,347.173950 776.961670,322.504059 762.980469,298.869080 
	C750.175110,277.221985 735.049622,257.265137 717.543152,239.282013 
	C706.851013,228.298798 695.153687,218.259964 683.536926,208.226379 
	C678.160889,203.582947 671.898926,199.965164 665.762451,195.261292 
	C664.890808,194.516815 664.113831,193.604080 663.133484,193.052933 
	C646.863159,183.906067 630.785278,174.380188 614.191833,165.859268 
	C604.908630,161.092224 594.760925,158.008621 584.322754,153.821823 
	C569.061890,149.557785 553.914734,144.806702 538.498535,141.207962 
	C528.876831,138.961884 518.849182,138.454742 508.169739,136.990265 
	C502.334869,136.326630 496.497498,135.084518 490.665649,135.109955 
	C474.444244,135.180710 458.225189,135.777969 441.163452,136.029953 
	C432.149628,137.353058 423.071747,138.347290 414.139221,140.087662 
	C404.341156,141.996689 394.677124,144.593750 384.144043,146.979721 
	C371.821564,150.977448 359.413330,154.734009 347.212524,159.073837 
	C341.035522,161.270996 339.410706,165.312378 341.284180,170.680649 
	C342.669250,174.649445 347.464935,176.259857 353.082855,174.414963 
	C366.418823,170.035461 379.722015,165.556305 393.859619,161.016922 
	C412.241455,157.955597 430.623260,154.894257 449.916565,151.967438 
	C453.069672,151.914078 456.223419,151.884827 459.375763,151.802719 
	C467.971924,151.578796 476.585815,150.871109 485.158569,151.212357 
	C495.791565,151.635635 506.390320,152.920181 517.811707,153.997543 
	C518.725708,154.322342 519.618103,154.740189 520.556946,154.958145 
	C537.476013,158.885880 554.457275,162.565170 571.298279,166.801910 
	C578.661865,168.654404 585.741150,171.636612 593.308533,174.734726 
	C596.430908,176.121140 599.537292,177.544998 602.678223,178.887909 
	C624.196838,188.088058 644.382935,199.601349 663.130798,213.623611 
	C668.724426,217.807312 674.347534,221.951630 680.227905,226.723175 
	C683.418457,229.580612 686.811951,232.244034 689.763184,235.330353 
	C700.406189,246.460648 711.158142,257.504059 721.387207,269.008606 
	C735.111328,284.443848 746.197083,301.788605 755.935791,319.944489 
	C768.050842,342.530609 777.632568,366.171021 784.047852,391.786682 
	C789.663940,411.287689 792.598328,431.235077 794.014709,451.439209 
	C794.216125,454.312866 794.592529,457.174225 794.981873,460.969177 
	C794.325989,474.972961 793.761719,488.981934 792.975525,502.978394 
	C792.581299,509.996185 791.782837,516.991272 790.788025,524.719849 
	C789.641907,530.235718 788.776062,535.828064 787.295227,541.252563 
	C783.394653,555.540588 779.226807,569.755615 774.827209,584.668335 
	C766.512573,606.421021 755.984924,627.074585 743.284668,647.279297 
	C736.057800,657.150269 729.206726,667.327026 721.495850,676.804199 
	C714.112793,685.878723 705.836487,694.226501 697.339417,703.172729 
	C691.457520,708.680725 685.907043,714.605835 679.618591,719.602173 
	C669.332520,727.774780 658.566223,735.342896 647.318237,743.249878 
	C638.893738,748.163025 630.598145,753.316589 622.007629,757.919983 
	C613.832886,762.300659 605.350220,766.106873 596.256714,770.048523 
	C594.607788,770.704529 592.993286,771.470520 591.304565,771.999207 
	C575.082764,777.078064 558.848450,782.116882 541.759521,787.124207 
	C526.173706,789.471558 510.587921,791.818909 494.102570,794.029724 
	C485.668304,794.353088 477.235229,794.885010 468.799347,794.934875 
	C461.868561,794.975830 454.934418,794.444153 447.159607,794.025146 
	C432.106995,791.739075 417.054413,789.453003 401.306030,786.803955 
	C390.706970,783.798950 380.043915,780.998901 369.530823,777.718445 
	C362.260498,775.449890 355.197144,772.518250 347.676270,769.273926 
	C336.390350,763.641846 324.955750,758.286499 313.849945,752.319214 
	C291.897003,740.523499 272.225861,725.509277 254.065704,708.512573 
	C246.900238,701.806152 240.041122,694.772461 232.894974,687.439575 
	C232.710892,687.154846 232.450256,686.994690 232.002853,686.310425 
	C231.349228,685.503357 230.695602,684.696289 229.761398,683.284302 
	C225.532440,678.052673 221.238785,672.871826 217.085419,667.580872 
	C195.847458,640.526123 180.322037,610.365051 169.023727,578.004822 
	C165.236786,567.158447 162.390640,555.983643 159.020187,544.129089 
	C153.547318,518.131470 150.711731,491.861206 151.031662,465.282257 
	C151.101044,459.517761 151.555542,453.757904 151.970169,447.154327 
	C152.642853,442.321014 153.093506,437.444305 154.028641,432.662323 
	C157.204391,416.422546 160.551300,400.216217 163.994461,383.223785 
	C164.634384,381.214111 165.157303,379.158020 165.932693,377.202057 
	C172.301163,361.137512 178.716568,345.091553 185.721176,328.683289 
	C193.829849,314.826202 201.938522,300.969086 210.669449,286.808136 
	C220.128479,275.242126 229.587494,263.676086 239.655304,251.821579 
	C251.119324,241.250870 262.583344,230.680176 274.668152,219.811966 
	C284.802551,212.695343 294.927063,205.564575 305.076630,198.469666 
	C308.705566,195.932892 310.398621,190.244949 308.411224,186.975342 
	C305.826996,182.723709 300.394531,181.733612 295.844208,184.684464 
	C293.654266,186.104630 291.391388,187.424774 289.286316,188.961166 
	C281.147552,194.901291 273.059052,200.910278 264.251312,206.997879 
	C253.130020,216.984009 242.008743,226.970139 230.282455,237.230408 
	C224.089417,244.093369 217.699860,250.791946 211.772415,257.877106 
	C207.822968,262.597900 204.532425,267.869965 200.325241,273.191040 
	C191.646622,286.908722 182.968002,300.626404 173.990875,315.082123 
	C164.782242,332.376923 157.065994,350.303436 151.004517,369.764771 
	C144.679489,389.400055 139.821777,409.354858 137.220993,430.447845 
	C136.483475,438.123444 135.151413,445.797302 135.129395,453.474945 
	C135.080063,470.688507 135.588806,487.906677 136.093582,505.116394 
	C136.200760,508.771088 137.260300,512.397827 137.975082,516.913574 
	C139.816452,536.022522 144.275513,554.571655 149.918839,572.870117 
	C160.318741,606.591980 175.600937,637.889343 195.901291,666.795044 
	C211.798325,689.430786 229.778564,710.122681 251.169708,728.636536 
	C252.099365,729.128601 253.029007,729.620605 254.216721,730.693726 
	C255.463654,731.832947 256.710571,732.972107 258.295441,734.699219 
	C258.755249,734.879700 259.304321,734.954163 259.662048,735.255798 
	C279.525635,751.996338 301.318665,765.771423 324.760468,776.851807 
	C335.617859,781.983765 346.907715,786.200806 358.676666,791.178162 
	C368.909698,794.439209 379.060425,797.998291 389.405151,800.854919 
	C396.124481,802.710510 403.126617,803.541992 410.723145,805.214478 
	C425.815765,807.087585 440.908386,808.960632 456.929871,810.966980 
M439.320343,506.355286 
	C434.276215,516.434021 429.232086,526.512817 423.969666,537.224426 
	C417.609039,550.134644 411.248413,563.044922 404.311371,576.344177 
	C402.015656,580.907837 399.736603,585.479980 397.421204,590.033630 
	C389.132019,606.335510 380.785217,622.608276 372.569427,638.946960 
	C370.783051,642.499573 372.367798,645.877136 375.319855,647.539734 
	C377.343231,648.679382 380.633667,648.550781 382.991241,647.815063 
	C384.993988,647.190125 386.631500,645.025818 388.158173,643.301453 
	C403.042786,626.489685 417.897308,609.651001 432.695404,592.763000 
	C436.597534,588.309753 440.275116,583.659790 444.658966,578.801697 
	C455.790649,566.235107 466.922333,553.668518 478.659668,540.794434 
	C484.501404,534.288452 490.412018,527.842468 496.159088,521.253906 
	C499.611969,517.295410 502.809814,513.114563 506.710999,508.735382 
	C511.825623,502.857452 516.940247,496.979523 522.651672,490.788361 
	C527.453308,485.225220 532.255005,479.662079 537.651062,473.785767 
	C543.139038,467.537323 548.627014,461.288879 554.703918,454.731567 
	C560.506226,448.169434 566.308472,441.607269 572.704224,434.728027 
	C573.458618,433.856140 574.297241,433.043121 574.954407,432.103241 
	C581.519409,422.713806 579.549377,418.608978 568.201538,416.912689 
	C558.126892,415.406738 548.143677,413.298523 538.101135,411.566223 
	C526.760742,409.610077 515.399170,407.776855 503.646973,405.365845 
	C502.635986,405.062164 501.625031,404.758453 500.497498,404.419769 
	C504.797913,397.119659 508.929047,390.106934 513.656677,382.754578 
	C518.715210,374.836182 523.773743,366.917816 529.190002,358.400848 
	C535.404907,348.603760 541.619751,338.806671 548.192871,328.410858 
	C554.568298,318.357452 561.142578,308.422943 567.249634,298.209106 
	C571.367615,291.321960 568.091980,286.117157 559.957520,286.033417 
	C551.296143,285.944244 542.633179,286.009613 533.970947,286.009674 
	C504.652588,286.009888 475.334076,286.057861 446.016052,285.959076 
	C441.838654,285.945007 437.877441,286.771942 436.390106,290.704803 
	C432.242004,301.673523 428.675842,312.862335 424.347687,324.448364 
	C420.954346,334.301636 417.561005,344.154907 413.812378,354.666046 
	C411.264099,362.113312 408.715851,369.560577 405.815094,377.663239 
	C402.932556,385.777985 400.050018,393.892700 396.813599,402.666931 
	C394.171661,410.430267 391.529694,418.193604 388.326324,426.422638 
	C385.941895,433.573395 383.557465,440.724152 380.918274,448.471466 
	C378.907410,454.299957 376.896545,460.128448 374.319183,466.405060 
	C372.602234,471.605225 370.885315,476.805389 368.817932,482.662170 
	C368.327423,483.872101 367.901093,485.112946 367.335541,486.286774 
	C364.625336,491.911774 368.305023,498.685913 376.176086,496.902863 
	C391.179138,493.504120 406.096130,489.725342 421.883270,486.032257 
	C432.028900,483.828674 442.174561,481.625092 452.516083,479.378937 
	C451.573151,481.731171 450.724548,483.848206 449.314636,486.366089 
	C446.172150,492.896240 443.029633,499.426361 439.320343,506.355286 
z"/>
<path fill="#713131" opacity="1.000000" stroke="none" 
	d="
M424.879944,323.964233 
	C428.675842,312.862335 432.242004,301.673523 436.390106,290.704803 
	C437.877441,286.771942 441.838654,285.945007 446.016052,285.959076 
	C475.334076,286.057861 504.652588,286.009888 533.970947,286.009674 
	C542.633179,286.009613 551.296143,285.944244 559.957520,286.033417 
	C568.091980,286.117157 571.367615,291.321960 567.249634,298.209106 
	C561.142578,308.422943 554.568298,318.357452 547.588257,328.708191 
	C543.622070,327.984283 540.266174,326.943970 536.896057,325.951782 
	C535.640991,325.582275 534.360474,325.097534 533.078369,325.053894 
	C523.627625,324.732239 514.173035,324.283508 504.720825,324.308350 
	C491.182434,324.343933 477.644287,324.974945 464.107452,324.929779 
	C451.030670,324.886169 437.955719,324.307739 424.879944,323.964233 
z"/>
<path fill="#D20DA8" opacity="1.000000" stroke="none" 
	d="
M784.166504,390.998352 
	C777.632568,366.171021 768.050842,342.530609 755.935791,319.944489 
	C746.197083,301.788605 735.111328,284.443848 721.387207,269.008606 
	C711.158142,257.504059 700.406189,246.460648 689.763184,235.330353 
	C686.811951,232.244034 683.418457,229.580612 680.069336,226.043030 
	C676.496643,218.992401 672.919556,212.701920 669.736755,206.217880 
	C668.134705,202.954025 667.248535,199.338745 666.038635,195.882385 
	C671.898926,199.965164 678.160889,203.582947 683.536926,208.226379 
	C695.153687,218.259964 706.851013,228.298798 717.543152,239.282013 
	C735.049622,257.265137 750.175110,277.221985 762.980469,298.869080 
	C776.961670,322.504059 788.760254,347.173950 796.125916,373.668610 
	C800.469482,389.292542 803.403992,405.308197 806.590088,421.470154 
	C802.463562,416.672089 798.678467,411.580658 794.986328,406.422729 
	C791.330994,401.316162 787.769226,396.142548 784.166504,390.998352 
z"/>
<path fill="#932929" opacity="1.000000" stroke="none" 
	d="
M381.173035,447.874908 
	C383.557465,440.724152 385.941895,433.573395 389.056580,426.198120 
	C394.475433,426.542542 398.565491,425.444946 402.231354,422.253845 
	C403.614014,421.050293 405.749268,420.215118 407.589569,420.117310 
	C416.653809,419.635498 425.735229,419.197296 434.808746,419.231781 
	C449.515106,419.287628 464.219147,419.797546 478.925873,419.974945 
	C489.477539,420.102234 500.089020,419.302673 510.572052,420.160522 
	C526.926270,421.498779 543.198425,423.858154 559.491089,425.898590 
	C560.840210,426.067535 563.174377,427.060486 563.200500,427.741455 
	C563.429932,433.728363 568.005371,434.033783 572.110718,435.045105 
	C566.308472,441.607269 560.506226,448.169434 554.007507,454.842834 
	C550.782959,454.441406 548.254822,453.928680 545.411926,453.352173 
	C546.015625,451.621704 546.304138,450.515900 546.773376,449.492981 
	C551.054260,440.159882 550.403259,439.165192 539.801941,439.008575 
	C538.136108,438.983978 536.468750,438.988831 534.803284,439.028137 
	C521.347168,439.345612 507.890686,439.957672 494.435516,439.928497 
	C477.513275,439.891785 460.593353,439.230743 443.670197,439.032440 
	C430.105377,438.873444 416.532867,438.822266 402.974030,439.149017 
	C400.092743,439.218445 396.133575,440.306335 394.622620,442.360504 
	C391.025421,447.250946 386.690094,448.563354 381.173035,447.874908 
z"/>
<path fill="#7511C1" opacity="1.000000" stroke="none" 
	d="
M257.957520,734.111328 
	C256.710571,732.972107 255.463654,731.832947 253.957474,730.097107 
	C252.761658,729.014404 251.825073,728.528259 250.888519,728.042114 
	C229.778564,710.122681 211.798325,689.430786 195.901291,666.795044 
	C175.600937,637.889343 160.318741,606.591980 149.918839,572.870117 
	C144.275513,554.571655 139.816452,536.022522 138.284546,516.513672 
	C139.433578,516.591553 140.609467,516.858765 141.060898,517.579590 
	C145.714233,525.010559 150.191635,532.551941 154.861084,539.972534 
	C156.012466,541.802307 157.682709,543.305542 159.114456,544.958923 
	C162.390640,555.983643 165.236786,567.158447 169.023727,578.004822 
	C180.322037,610.365051 195.847458,640.526123 217.085419,667.580872 
	C221.238785,672.871826 225.532440,678.052673 229.936798,683.922974 
	C230.779160,685.360779 231.446106,686.159973 232.113052,686.959106 
	C232.450256,686.994690 232.710892,687.154846 232.993713,688.029175 
	C235.073853,691.817932 237.090759,694.995728 239.030136,698.220215 
	C245.290192,708.628601 251.582413,719.018860 257.679871,729.521973 
	C258.367432,730.706299 257.893066,732.565247 257.957520,734.111328 
z"/>
<path fill="#7A2F2F" opacity="1.000000" stroke="none" 
	d="
M424.613831,324.206299 
	C437.955719,324.307739 451.030670,324.886169 464.107452,324.929779 
	C477.644287,324.974945 491.182434,324.343933 504.720825,324.308350 
	C514.173035,324.283508 523.627625,324.732239 533.078369,325.053894 
	C534.360474,325.097534 535.640991,325.582275 536.896057,325.951782 
	C540.266174,326.943970 543.622070,327.984283 547.409119,329.007507 
	C541.619751,338.806671 535.404907,348.603760 528.635254,358.608521 
	C524.271606,357.809723 519.566772,358.460602 518.128723,353.098175 
	C517.969971,352.506104 516.104309,352.085754 515.023193,352.070038 
	C498.754272,351.833008 482.476105,351.279205 466.216614,351.610779 
	C448.857910,351.964813 431.516571,353.172913 414.167664,354.008179 
	C417.561005,344.154907 420.954346,334.301636 424.613831,324.206299 
z"/>
<path fill="#7511C1" opacity="1.000000" stroke="none" 
	d="
M566.954041,220.110519 
	C557.408997,217.299057 547.994202,213.868729 538.287354,211.826096 
	C524.864929,209.001587 511.293152,206.438126 497.654999,205.210236 
	C483.309448,203.918686 468.749939,203.373672 454.395538,204.276688 
	C440.574371,205.146164 426.641266,207.278214 413.219543,210.679489 
	C396.667358,214.874054 380.592926,220.953949 363.664612,226.203094 
	C358.860199,225.874268 354.697205,225.624374 350.547913,225.230392 
	C346.675293,224.862701 342.817200,224.341934 338.952728,223.888535 
	C359.474335,211.644943 381.722595,203.562317 404.830322,198.211624 
	C419.612427,194.788773 434.782440,192.631393 449.900909,191.192062 
	C463.576843,189.890045 477.487518,189.300308 491.173767,190.212097 
	C523.207520,192.346191 554.240051,199.418488 583.779846,212.352829 
	C586.773315,213.663559 589.753479,215.004715 592.584717,216.788712 
	C590.001648,217.542786 587.576355,217.863129 585.145386,218.132477 
	C579.082947,218.804153 573.018005,219.452682 566.954041,220.110519 
z"/>
<path fill="#8D2B2B" opacity="1.000000" stroke="none" 
	d="
M572.407471,434.886566 
	C568.005371,434.033783 563.429932,433.728363 563.200500,427.741455 
	C563.174377,427.060486 560.840210,426.067535 559.491089,425.898590 
	C543.198425,423.858154 526.926270,421.498779 510.572052,420.160522 
	C500.089020,419.302673 489.477539,420.102234 478.925873,419.974945 
	C464.219147,419.797546 449.515106,419.287628 434.808746,419.231781 
	C425.735229,419.197296 416.653809,419.635498 407.589569,420.117310 
	C405.749268,420.215118 403.614014,421.050293 402.231354,422.253845 
	C398.565491,425.444946 394.475433,426.542542 389.337280,425.965271 
	C391.529694,418.193604 394.171661,410.430267 397.427704,402.335693 
	C401.399139,401.441681 405.454895,401.863098 407.953308,400.090088 
	C411.891541,397.295349 415.755829,396.880646 420.159271,397.128448 
	C426.758423,397.499878 433.366760,397.851868 439.973846,397.909637 
	C455.184143,398.042694 470.396088,398.016571 485.607269,397.997498 
	C488.444977,397.993927 489.764008,399.123108 490.164490,402.037262 
	C490.347565,403.369415 491.747620,405.445190 492.803192,405.581909 
	C496.502350,406.061066 500.291718,405.843262 504.046844,405.890137 
	C515.399170,407.776855 526.760742,409.610077 538.101135,411.566223 
	C548.143677,413.298523 558.126892,415.406738 568.201538,416.912689 
	C579.549377,418.608978 581.519409,422.713806 574.954407,432.103241 
	C574.297241,433.043121 573.458618,433.856140 572.407471,434.886566 
z"/>
<path fill="#9D2727" opacity="1.000000" stroke="none" 
	d="
M449.875916,485.965240 
	C450.724548,483.848206 451.573151,481.731171 452.516083,479.378937 
	C442.174561,481.625092 432.028900,483.828674 421.238647,485.776794 
	C416.135193,484.285492 411.676331,483.049683 405.853485,481.435852 
	C413.614655,478.303040 420.432007,475.551208 427.249390,472.799347 
	C427.139435,472.322601 427.029480,471.845825 426.919525,471.369080 
	C425.189667,471.093567 423.458130,470.571106 421.730255,470.583160 
	C411.593658,470.653870 401.457245,470.985168 391.322235,470.934113 
	C387.430695,470.914520 384.469940,472.141602 382.468506,475.376404 
	C379.376678,480.373505 375.188263,482.977264 369.168335,482.005524 
	C370.885315,476.805389 372.602234,471.605225 374.989258,466.198395 
	C380.016144,467.225464 383.246948,465.642303 386.243011,462.403229 
	C388.197327,460.290405 390.718231,457.713287 393.275574,457.341736 
	C399.608795,456.421753 406.112518,456.389038 412.540710,456.482574 
	C420.331604,456.595947 428.114532,457.512848 435.902313,457.533264 
	C449.957214,457.570160 464.012665,457.112152 478.068909,457.022034 
	C493.786774,456.921265 509.505737,456.999481 525.224243,457.000092 
	C535.789795,457.000519 535.789795,457.000732 531.352905,466.334625 
	C529.252319,470.753693 529.833923,471.877106 534.782227,473.137543 
	C535.570801,473.338440 536.299988,473.772583 537.056641,474.098938 
	C532.255005,479.662079 527.453308,485.225220 522.043518,490.741486 
	C514.192688,488.481812 513.798828,487.405975 517.814880,480.785156 
	C518.159363,480.217163 518.660950,479.705597 518.856140,479.093384 
	C519.388550,477.423584 520.642883,474.669403 520.089844,474.220886 
	C518.585999,473.001404 516.291138,472.190002 514.318848,472.208099 
	C501.932251,472.321716 489.542267,473.052368 477.165833,472.843719 
	C471.544128,472.748932 467.559082,474.331512 464.711365,479.007446 
	C461.296844,484.614105 456.765869,487.792114 449.875916,485.965240 
z"/>
<path fill="#D20DA8" opacity="1.000000" stroke="none" 
	d="
M374.042664,723.887939 
	C383.154633,726.834473 392.130981,730.340698 401.412018,732.589539 
	C413.735687,735.575745 426.202881,738.586670 438.779083,739.764343 
	C456.215942,741.397278 473.851654,742.361267 491.326263,741.675415 
	C505.256683,741.128662 519.186462,738.226135 532.905273,735.358765 
	C544.153870,733.007629 555.091248,729.168030 566.871826,726.127808 
	C578.349365,726.293091 589.121765,726.318909 599.894165,726.344666 
	C576.575623,737.768677 552.236938,745.982849 526.728821,751.147095 
	C503.062683,755.938354 479.190491,757.040588 455.307861,755.798950 
	C425.691376,754.259399 396.954590,747.614502 369.321014,736.663452 
	C362.091675,733.798523 355.048187,730.464539 348.036804,726.784302 
	C353.219910,725.869934 358.291290,725.582458 363.349365,725.142273 
	C366.923096,724.831360 370.478882,724.313477 374.042664,723.887939 
z"/>
<path fill="#7511C1" opacity="1.000000" stroke="none" 
	d="
M190.168655,347.002045 
	C201.929901,321.617340 216.147339,297.791382 234.151627,276.255127 
	C251.394684,255.629501 270.671844,237.341858 292.556976,221.626480 
	C313.190887,206.809555 335.377747,195.042404 358.649017,185.124710 
	C359.084137,184.939270 359.637268,185.030624 360.693237,185.234528 
	C360.948273,186.639725 360.993164,188.120071 360.276581,188.906784 
	C358.197449,191.189392 355.630310,193.032181 353.586884,195.341537 
	C349.618408,199.826599 345.876740,204.512360 342.041107,209.114990 
	C329.758942,216.505142 317.053986,223.288055 305.316833,231.460938 
	C294.186737,239.211105 283.907501,248.225388 273.543823,257.024963 
	C254.225128,273.427979 239.080658,293.421753 225.118271,314.380829 
	C223.946823,316.139313 222.859909,317.954071 221.057037,319.921173 
	C219.099197,321.232605 217.705307,322.263672 216.565399,323.524353 
	C215.133575,325.107849 214.061218,327.029327 212.566238,328.540253 
	C208.862778,332.283295 205.115280,335.997559 201.179459,339.491302 
	C197.850433,342.446472 195.879761,347.510498 190.168655,347.002045 
z"/>
<path fill="#982828" opacity="1.000000" stroke="none" 
	d="
M537.353882,473.942322 
	C536.299988,473.772583 535.570801,473.338440 534.782227,473.137543 
	C529.833923,471.877106 529.252319,470.753693 531.352905,466.334625 
	C535.789795,457.000732 535.789795,457.000519 525.224243,457.000092 
	C509.505737,456.999481 493.786774,456.921265 478.068909,457.022034 
	C464.012665,457.112152 449.957214,457.570160 435.902313,457.533264 
	C428.114532,457.512848 420.331604,456.595947 412.540710,456.482574 
	C406.112518,456.389038 399.608795,456.421753 393.275574,457.341736 
	C390.718231,457.713287 388.197327,460.290405 386.243011,462.403229 
	C383.246948,465.642303 380.016144,467.225464 375.272522,465.974304 
	C376.896545,460.128448 378.907410,454.299957 381.045654,448.173187 
	C386.690094,448.563354 391.025421,447.250946 394.622620,442.360504 
	C396.133575,440.306335 400.092743,439.218445 402.974030,439.149017 
	C416.532867,438.822266 430.105377,438.873444 443.670197,439.032440 
	C460.593353,439.230743 477.513275,439.891785 494.435516,439.928497 
	C507.890686,439.957672 521.347168,439.345612 534.803284,439.028137 
	C536.468750,438.988831 538.136108,438.983978 539.801941,439.008575 
	C550.403259,439.165192 551.054260,440.159882 546.773376,449.492981 
	C546.304138,450.515900 546.015625,451.621704 545.411926,453.352173 
	C548.254822,453.928680 550.782959,454.441406 553.713074,454.997284 
	C548.627014,461.288879 543.139038,467.537323 537.353882,473.942322 
z"/>
<path fill="#D20DA8" opacity="1.000000" stroke="none" 
	d="
M620.002136,728.166382 
	C631.269592,720.456421 643.078491,713.416138 653.660950,704.858948 
	C665.608215,695.198242 676.949219,684.653687 687.632141,673.602478 
	C697.633606,663.256165 706.695312,651.954651 715.636963,640.651428 
	C719.705872,635.507812 722.488159,629.346497 726.357544,623.286377 
	C729.938904,620.569275 733.155945,618.371399 736.064209,615.821350 
	C741.323547,611.209717 746.359131,606.343506 751.587158,601.694885 
	C752.518555,600.866638 753.929077,600.577148 755.118408,600.038818 
	C747.292358,618.191956 737.297363,635.135010 726.080261,651.352539 
	C713.953125,668.885742 699.718140,684.626770 684.239563,699.251038 
	C668.384460,714.231079 651.167297,727.474121 632.197815,738.230347 
	C620.329651,744.959961 607.942566,750.774292 595.491150,756.719971 
	C596.275818,755.014771 597.197266,753.423340 598.467957,752.192383 
	C603.445129,747.370911 608.753174,742.870667 613.491943,737.831360 
	C616.118164,735.038635 617.861084,731.415344 620.002136,728.166382 
z"/>
<path fill="#812D2D" opacity="1.000000" stroke="none" 
	d="
M413.990021,354.337097 
	C431.516571,353.172913 448.857910,351.964813 466.216614,351.610779 
	C482.476105,351.279205 498.754272,351.833008 515.023193,352.070038 
	C516.104309,352.085754 517.969971,352.506104 518.128723,353.098175 
	C519.566772,358.460602 524.271606,357.809723 528.456421,358.907837 
	C523.773743,366.917816 518.715210,374.836182 513.051392,382.717163 
	C509.245300,381.282104 505.120331,381.343445 503.962311,376.762787 
	C503.761017,375.966492 501.807800,375.143860 500.653046,375.128296 
	C483.215057,374.893158 465.769073,374.450256 448.337799,374.764862 
	C434.272156,375.018738 420.223663,376.224426 406.167572,377.007843 
	C408.715851,369.560577 411.264099,362.113312 413.990021,354.337097 
z"/>
<path fill="#872C2C" opacity="1.000000" stroke="none" 
	d="
M405.991333,377.335541 
	C420.223663,376.224426 434.272156,375.018738 448.337799,374.764862 
	C465.769073,374.450256 483.215057,374.893158 500.653046,375.128296 
	C501.807800,375.143860 503.761017,375.966492 503.962311,376.762787 
	C505.120331,381.343445 509.245300,381.282104 512.753174,382.886963 
	C508.929047,390.106934 504.797913,397.119659 500.497498,404.419769 
	C501.625031,404.758453 502.635986,405.062164 503.846924,405.627991 
	C500.291718,405.843262 496.502350,406.061066 492.803192,405.581909 
	C491.747620,405.445190 490.347565,403.369415 490.164490,402.037262 
	C489.764008,399.123108 488.444977,397.993927 485.607269,397.997498 
	C470.396088,398.016571 455.184143,398.042694 439.973846,397.909637 
	C433.366760,397.851868 426.758423,397.499878 420.159271,397.128448 
	C415.755829,396.880646 411.891541,397.295349 407.953308,400.090088 
	C405.454895,401.863098 401.399139,401.441681 397.604645,402.005920 
	C400.050018,393.892700 402.932556,385.777985 405.991333,377.335541 
z"/>
<path fill="#BB2121" opacity="1.000000" stroke="none" 
	d="
M444.055786,579.100159 
	C440.275116,583.659790 436.597534,588.309753 432.695404,592.763000 
	C417.897308,609.651001 403.042786,626.489685 388.158173,643.301453 
	C386.631500,645.025818 384.993988,647.190125 382.991241,647.815063 
	C380.633667,648.550781 377.343231,648.679382 375.319855,647.539734 
	C372.367798,645.877136 370.783051,642.499573 372.569427,638.946960 
	C380.785217,622.608276 389.132019,606.335510 397.421204,590.033630 
	C399.736603,585.479980 402.015656,580.907837 404.992645,576.191467 
	C411.235077,577.979797 414.912354,575.618164 417.735779,570.940247 
	C419.540222,567.950439 421.201019,564.698792 423.661713,562.327942 
	C426.288177,559.797485 429.557465,557.137878 432.950867,556.402893 
	C437.118378,555.500061 441.705139,556.532288 447.743988,556.800598 
	C445.053436,561.075500 443.008148,564.690796 440.612946,568.057129 
	C435.098267,575.807861 435.130493,576.121948 443.631165,578.839600 
	C443.784790,578.888672 443.914795,579.011658 444.055786,579.100159 
z"/>
<path fill="#B12323" opacity="1.000000" stroke="none" 
	d="
M444.357391,578.950928 
	C443.914795,579.011658 443.784790,578.888672 443.631165,578.839600 
	C435.130493,576.121948 435.098267,575.807861 440.612946,568.057129 
	C443.008148,564.690796 445.053436,561.075500 447.743988,556.800598 
	C441.705139,556.532288 437.118378,555.500061 432.950867,556.402893 
	C429.557465,557.137878 426.288177,559.797485 423.661713,562.327942 
	C421.201019,564.698792 419.540222,567.950439 417.735779,570.940247 
	C414.912354,575.618164 411.235077,577.979797 405.280884,575.996948 
	C411.248413,563.044922 417.609039,550.134644 424.560181,536.987305 
	C431.215668,537.932251 435.333740,535.250427 438.511719,530.298340 
	C440.298828,527.513550 442.332489,524.849609 444.541534,522.388367 
	C445.693848,521.104614 447.431946,519.600769 448.965118,519.532288 
	C456.060181,519.215393 463.240631,518.755493 470.269531,519.495544 
	C480.580231,520.581055 480.751282,521.534851 474.532776,529.961853 
	C470.124237,535.936096 470.286621,536.637146 476.633942,539.732117 
	C477.196259,540.006287 477.584808,540.636841 478.054016,541.101929 
	C466.922333,553.668518 455.790649,566.235107 444.357391,578.950928 
z"/>
<path fill="#7B11C0" opacity="1.000000" stroke="none" 
	d="
M258.126465,734.405273 
	C257.893066,732.565247 258.367432,730.706299 257.679871,729.521973 
	C251.582413,719.018860 245.290192,708.628601 239.030136,698.220215 
	C237.090759,694.995728 235.073853,691.817932 233.067474,688.253296 
	C240.041122,694.772461 246.900238,701.806152 254.065704,708.512573 
	C272.225861,725.509277 291.897003,740.523499 313.849945,752.319214 
	C324.955750,758.286499 336.390350,763.641846 347.861755,769.971008 
	C348.645355,772.334229 349.068298,774.090820 349.873657,775.649902 
	C352.507904,780.749512 355.281494,785.777222 358.001495,790.832581 
	C346.907715,786.200806 335.617859,781.983765 324.760468,776.851807 
	C301.318665,765.771423 279.525635,751.996338 259.662048,735.255798 
	C259.304321,734.954163 258.755249,734.879700 258.126465,734.405273 
z"/>
<path fill="#A72525" opacity="1.000000" stroke="none" 
	d="
M478.356873,540.948181 
	C477.584808,540.636841 477.196259,540.006287 476.633942,539.732117 
	C470.286621,536.637146 470.124237,535.936096 474.532776,529.961853 
	C480.751282,521.534851 480.580231,520.581055 470.269531,519.495544 
	C463.240631,518.755493 456.060181,519.215393 448.965118,519.532288 
	C447.431946,519.600769 445.693848,521.104614 444.541534,522.388367 
	C442.332489,524.849609 440.298828,527.513550 438.511719,530.298340 
	C435.333740,535.250427 431.215668,537.932251 424.669312,536.670898 
	C429.232086,526.512817 434.276215,516.434021 440.053040,506.164185 
	C447.503296,507.180206 451.878021,504.004669 455.054749,498.445404 
	C457.492065,494.180084 460.843903,491.180725 466.086182,491.045288 
	C477.510162,490.750122 488.933105,490.403168 500.358521,490.181213 
	C504.324738,490.104156 505.792175,492.638641 503.802826,496.096100 
	C502.566345,498.245087 500.833893,500.106079 499.565277,502.239777 
	C496.951935,506.635132 498.066803,508.656982 503.132629,508.982574 
	C504.126160,509.046417 505.125580,509.019012 506.122253,509.033691 
	C502.809814,513.114563 499.611969,517.295410 496.159088,521.253906 
	C490.412018,527.842468 484.501404,534.288452 478.356873,540.948181 
z"/>
<path fill="#7B11C0" opacity="1.000000" stroke="none" 
	d="
M190.090973,347.367859 
	C195.879761,347.510498 197.850433,342.446472 201.179459,339.491302 
	C205.115280,335.997559 208.862778,332.283295 212.566238,328.540253 
	C214.061218,327.029327 215.133575,325.107849 216.565399,323.524353 
	C217.705307,322.263672 219.099197,321.232605 220.746765,320.070831 
	C217.226501,327.383575 213.193298,334.651855 209.479553,342.079895 
	C196.423721,368.193390 187.317108,395.595947 182.968719,424.517670 
	C182.216095,429.523590 181.513748,434.537048 180.134811,439.902313 
	C174.375702,444.171265 169.269958,448.084930 164.164230,451.998596 
	C166.498596,417.897247 174.587799,385.142639 187.263031,353.467682 
	C188.048843,351.503967 189.090591,349.642639 190.090973,347.367859 
z"/>
<path fill="#CC0DAA" opacity="1.000000" stroke="none" 
	d="
M665.900513,195.571838 
	C667.248535,199.338745 668.134705,202.954025 669.736755,206.217880 
	C672.919556,212.701920 676.496643,218.992401 679.933960,225.738434 
	C674.347534,221.951630 668.724426,217.807312 663.130798,213.623611 
	C644.382935,199.601349 624.196838,188.088058 602.678223,178.887909 
	C599.537292,177.544998 596.430908,176.121140 593.247925,174.109009 
	C592.772339,171.793304 592.604675,169.990799 591.896362,168.434311 
	C589.709290,163.627945 587.315979,158.915436 585.002747,154.166473 
	C594.760925,158.008621 604.908630,161.092224 614.191833,165.859268 
	C630.785278,174.380188 646.863159,183.906067 663.133484,193.052933 
	C664.113831,193.604080 664.890808,194.516815 665.900513,195.571838 
z"/>
<path fill="#A12626" opacity="1.000000" stroke="none" 
	d="
M506.416626,508.884521 
	C505.125580,509.019012 504.126160,509.046417 503.132629,508.982574 
	C498.066803,508.656982 496.951935,506.635132 499.565277,502.239777 
	C500.833893,500.106079 502.566345,498.245087 503.802826,496.096100 
	C505.792175,492.638641 504.324738,490.104156 500.358521,490.181213 
	C488.933105,490.403168 477.510162,490.750122 466.086182,491.045288 
	C460.843903,491.180725 457.492065,494.180084 455.054749,498.445404 
	C451.878021,504.004669 447.503296,507.180206 440.336426,505.964783 
	C443.029633,499.426361 446.172150,492.896240 449.595276,486.165649 
	C456.765869,487.792114 461.296844,484.614105 464.711365,479.007446 
	C467.559082,474.331512 471.544128,472.748932 477.165833,472.843719 
	C489.542267,473.052368 501.932251,472.321716 514.318848,472.208099 
	C516.291138,472.190002 518.585999,473.001404 520.089844,474.220886 
	C520.642883,474.669403 519.388550,477.423584 518.856140,479.093384 
	C518.660950,479.705597 518.159363,480.217163 517.814880,480.785156 
	C513.798828,487.405975 514.192688,488.481812 521.745117,490.898071 
	C516.940247,496.979523 511.825623,502.857452 506.416626,508.884521 
z"/>
<path fill="#7B11C0" opacity="1.000000" stroke="none" 
	d="
M159.067322,544.544006 
	C157.682709,543.305542 156.012466,541.802307 154.861084,539.972534 
	C150.191635,532.551941 145.714233,525.010559 141.060898,517.579590 
	C140.609467,516.858765 139.433578,516.591553 138.237518,516.075562 
	C137.260300,512.397827 136.200760,508.771088 136.093582,505.116394 
	C135.588806,487.906677 135.080063,470.688507 135.129395,453.474945 
	C135.151413,445.797302 136.483475,438.123444 137.772705,430.466125 
	C141.426712,435.558746 144.405151,440.716370 147.721878,445.646454 
	C148.511536,446.820221 150.432205,447.233063 151.832657,447.995911 
	C151.555542,453.757904 151.101044,459.517761 151.031662,465.282257 
	C150.711731,491.861206 153.547318,518.131470 159.067322,544.544006 
z"/>
<path fill="#C40EAC" opacity="1.000000" stroke="none" 
	d="
M584.662720,153.994141 
	C587.315979,158.915436 589.709290,163.627945 591.896362,168.434311 
	C592.604675,169.990799 592.772339,171.793304 593.068481,173.794525 
	C585.741150,171.636612 578.661865,168.654404 571.298279,166.801910 
	C554.457275,162.565170 537.476013,158.885880 520.556946,154.958145 
	C519.618103,154.740189 518.725708,154.322342 517.368286,153.563049 
	C515.648010,150.673843 514.332031,148.238480 513.104553,145.759277 
	C511.696625,142.915558 510.367188,140.032959 509.003693,137.167236 
	C518.849182,138.454742 528.876831,138.961884 538.498535,141.207962 
	C553.914734,144.806702 569.061890,149.557785 584.662720,153.994141 
z"/>
<path fill="#7B11C0" opacity="1.000000" stroke="none" 
	d="
M342.404846,209.056519 
	C345.876740,204.512360 349.618408,199.826599 353.586884,195.341537 
	C355.630310,193.032181 358.197449,191.189392 360.276581,188.906784 
	C360.993164,188.120071 360.948273,186.639725 361.074158,185.211884 
	C369.087616,181.974670 377.127655,178.452896 385.503754,176.157135 
	C398.164215,172.687088 411.026276,169.918945 423.872253,167.178513 
	C428.163055,166.263168 432.666992,166.347015 437.514038,166.320297 
	C436.438599,169.439575 435.081451,172.316254 433.360107,174.955368 
	C431.778015,177.381027 429.803741,179.550858 428.002228,181.833374 
	C420.227753,183.540131 412.309448,184.768402 404.708710,187.053192 
	C388.853149,191.819412 373.116089,196.998505 357.437225,202.322800 
	C352.375763,204.041611 347.648651,206.745041 342.404846,209.056519 
z"/>
<path fill="#B40EB0" opacity="1.000000" stroke="none" 
	d="
M755.117432,659.041565 
	C749.435730,667.165527 744.303955,675.752258 737.945740,683.306885 
	C727.967529,695.162842 717.161804,706.322449 706.164551,717.663086 
	C703.065979,712.664062 700.509399,707.778931 697.952759,702.893677 
	C705.836487,694.226501 714.112793,685.878723 721.495850,676.804199 
	C729.206726,667.327026 736.057800,657.150269 743.880737,647.301636 
	C746.065979,649.533325 747.481079,651.900085 749.294678,653.906555 
	C751.018921,655.814026 753.159790,657.345032 755.117432,659.041565 
z"/>
<path fill="#CE0DA9" opacity="1.000000" stroke="none" 
	d="
M755.435181,599.854980 
	C753.929077,600.577148 752.518555,600.866638 751.587158,601.694885 
	C746.359131,606.343506 741.323547,611.209717 736.064209,615.821350 
	C733.155945,618.371399 729.938904,620.569275 726.513916,622.964050 
	C739.865723,599.959290 750.356079,575.568665 757.024719,549.570740 
	C757.387451,548.156433 757.830627,546.762756 758.900513,545.080933 
	C760.954529,543.670654 762.334229,542.526245 763.736023,541.409546 
	C768.097412,537.935242 772.467163,534.471436 776.833618,531.003540 
	C773.102783,545.257996 769.713318,559.613892 765.516541,573.729858 
	C762.890076,582.563782 759.048401,591.036438 755.435181,599.854980 
z"/>
<path fill="#C80EAB" opacity="1.000000" stroke="none" 
	d="
M776.906372,530.593811 
	C772.467163,534.471436 768.097412,537.935242 763.736023,541.409546 
	C762.334229,542.526245 760.954529,543.670654 759.225525,544.879883 
	C760.268005,537.112610 761.459412,529.228516 763.070312,521.431213 
	C766.551514,504.581482 767.369690,487.552216 767.008728,470.418945 
	C766.984253,469.256836 767.022156,468.093384 767.415405,466.369263 
	C771.131470,462.524841 774.420288,459.196503 777.817810,455.983002 
	C779.020752,454.845215 780.488586,453.987335 781.835510,453.001648 
	C781.889771,466.625793 782.612366,480.289948 781.799438,493.862091 
	C781.071106,506.022064 778.652161,518.080750 776.906372,530.593811 
z"/>
<path fill="#BC0EAE" opacity="1.000000" stroke="none" 
	d="
M755.429749,658.893982 
	C753.159790,657.345032 751.018921,655.814026 749.294678,653.906555 
	C747.481079,651.900085 746.065979,649.533325 744.184204,647.137207 
	C755.984924,627.074585 766.512573,606.421021 775.317261,584.432739 
	C777.484924,586.138306 779.295410,587.981934 780.808411,590.043884 
	C782.932861,592.939148 784.836365,595.996643 786.834351,598.984741 
	C778.499512,619.961060 768.017273,639.820129 755.429749,658.893982 
z"/>
<path fill="#CE0DA9" opacity="1.000000" stroke="none" 
	d="
M619.654419,728.203003 
	C617.861084,731.415344 616.118164,735.038635 613.491943,737.831360 
	C608.753174,742.870667 603.445129,747.370911 598.467957,752.192383 
	C597.197266,753.423340 596.275818,755.014771 595.116455,756.779907 
	C583.385925,761.411743 571.845886,766.052490 560.042969,769.883301 
	C551.134888,772.774475 541.890625,774.629456 532.484375,776.556580 
	C533.740540,774.138672 535.137024,771.943787 536.910217,770.113953 
	C541.180664,765.707153 545.627563,761.471375 550.003296,757.166626 
	C571.946716,751.083496 592.958557,742.663818 613.057678,731.970337 
	C615.196777,730.832275 617.226318,729.488159 619.654419,728.203003 
z"/>
<path fill="#BC0EAE" opacity="1.000000" stroke="none" 
	d="
M508.586731,137.078751 
	C510.367188,140.032959 511.696625,142.915558 513.104553,145.759277 
	C514.332031,148.238480 515.648010,150.673843 516.964355,153.480621 
	C506.390320,152.920181 495.791565,151.635635 485.158569,151.212357 
	C476.585815,150.871109 467.971924,151.578796 459.375763,151.802719 
	C456.223419,151.884827 453.069672,151.914078 449.423340,151.533508 
	C446.621826,146.122147 444.313507,141.144714 442.005188,136.167297 
	C458.225189,135.777969 474.444244,135.180710 490.665649,135.109955 
	C496.497498,135.084518 502.334869,136.326630 508.586731,137.078751 
z"/>
<path fill="#8210BE" opacity="1.000000" stroke="none" 
	d="
M428.425995,181.898712 
	C429.803741,179.550858 431.778015,177.381027 433.360107,174.955368 
	C435.081451,172.316254 436.438599,169.439575 437.958069,166.273682 
	C443.256042,165.254562 448.541534,164.197906 453.846649,164.087570 
	C466.613708,163.822021 479.394867,163.791183 492.160400,164.090286 
	C498.171936,164.231155 504.160553,165.349396 510.483276,166.416183 
	C509.790619,168.323776 508.779633,169.843597 507.756653,171.355301 
	C505.842682,174.183685 503.921814,177.007370 502.003784,179.832993 
	C488.748230,179.555283 475.480682,178.806931 462.240814,179.144638 
	C451.093750,179.428940 439.978882,180.975952 428.425995,181.898712 
z"/>
<path fill="#8210BE" opacity="1.000000" stroke="none" 
	d="
M151.901413,447.575134 
	C150.432205,447.233063 148.511536,446.820221 147.721878,445.646454 
	C144.405151,440.716370 141.426712,435.558746 138.111359,430.216522 
	C139.821777,409.354858 144.679489,389.400055 151.419739,369.467957 
	C154.003555,371.257690 156.412766,373.151764 158.276947,375.481903 
	C160.384277,378.115997 162.002151,381.141724 163.832855,383.997131 
	C160.551300,400.216217 157.204391,416.422546 154.028641,432.662323 
	C153.093506,437.444305 152.642853,442.321014 151.901413,447.575134 
z"/>
<path fill="#CE0DA9" opacity="1.000000" stroke="none" 
	d="
M784.107178,391.392517 
	C787.769226,396.142548 791.330994,401.316162 794.986328,406.422729 
	C798.678467,411.580658 802.463562,416.672089 806.520874,421.895874 
	C807.554504,425.452179 808.741089,428.881775 808.916687,432.362366 
	C809.752258,448.923981 810.312683,465.499451 810.581055,482.436066 
	C806.845459,478.485229 803.314697,474.296112 800.219055,469.806915 
	C798.125061,466.770264 796.643433,463.311340 794.887939,460.041290 
	C794.592529,457.174225 794.216125,454.312866 794.014709,451.439209 
	C792.598328,431.235077 789.663940,411.287689 784.107178,391.392517 
z"/>
<path fill="#CC0DAA" opacity="1.000000" stroke="none" 
	d="
M600.189453,726.201721 
	C589.121765,726.318909 578.349365,726.293091 567.264648,726.079895 
	C575.633728,721.928284 584.361877,718.062805 592.986633,713.978821 
	C609.539490,706.140564 624.718384,696.080444 639.952942,685.159302 
	C646.476562,685.891174 652.297668,686.464966 658.118835,687.038818 
	C647.646790,695.043762 637.460327,703.464539 626.609802,710.918457 
	C618.338013,716.600830 609.223999,721.057068 600.189453,726.201721 
z"/>
<path fill="#AA0FB3" opacity="1.000000" stroke="none" 
	d="
M697.646118,703.033203 
	C700.509399,707.778931 703.065979,712.664062 705.862305,717.800659 
	C695.375000,727.039917 684.768494,736.177490 673.869812,744.952209 
	C668.460815,749.307190 662.515198,752.995667 656.168945,756.833740 
	C653.017822,752.176575 650.510193,747.671265 648.002502,743.165955 
	C658.566223,735.342896 669.332520,727.774780 679.618591,719.602173 
	C685.907043,714.605835 691.457520,708.680725 697.646118,703.033203 
z"/>
<path fill="#7B11C0" opacity="1.000000" stroke="none" 
	d="
M338.591553,223.944946 
	C342.817200,224.341934 346.675293,224.862701 350.547913,225.230392 
	C354.697205,225.624374 358.860199,225.874268 363.362183,226.409882 
	C345.442230,235.228699 327.950806,245.161499 311.676270,257.133911 
	C307.182037,260.440094 303.028076,264.208832 298.054138,267.759766 
	C295.614166,267.653625 293.799957,267.748596 292.069611,267.412170 
	C288.341553,266.687286 284.656616,265.740601 280.954041,264.884705 
	C288.713959,258.346161 296.064484,251.224976 304.335022,245.413055 
	C315.255981,237.738617 326.898224,231.090591 338.591553,223.944946 
z"/>
<path fill="#CC0DAA" opacity="1.000000" stroke="none" 
	d="
M373.865479,723.571533 
	C370.478882,724.313477 366.923096,724.831360 363.349365,725.142273 
	C358.291290,725.582458 353.219910,725.869934 347.798218,726.527466 
	C334.095978,718.856323 320.561707,711.173645 307.480682,702.784241 
	C300.650787,698.403992 294.618439,692.780212 288.445465,687.197205 
	C290.598572,686.451050 292.529572,686.200867 294.466125,686.005615 
	C298.323578,685.616699 302.184052,685.257935 306.043274,684.886719 
	C313.235992,689.896423 320.057068,695.584412 327.700195,699.772034 
	C342.788788,708.039185 358.332672,715.475403 373.865479,723.571533 
z"/>
<path fill="#8C10BB" opacity="1.000000" stroke="none" 
	d="
M184.950623,585.108337 
	C182.287918,577.802246 179.040909,570.648560 177.087616,563.157532 
	C173.348557,548.817871 170.345078,534.286499 167.449799,519.380371 
	C169.697021,517.441833 171.557297,515.988831 173.358215,514.465637 
	C175.872971,512.338745 178.343384,510.159363 180.832779,508.002441 
	C183.252670,529.447937 188.314957,550.283081 195.313538,570.670288 
	C195.838425,572.199341 196.400497,573.715576 196.554398,575.705139 
	C192.425888,579.151123 188.688248,582.129700 184.950623,585.108337 
z"/>
<path fill="#BC0EAE" opacity="1.000000" stroke="none" 
	d="
M781.906860,452.570923 
	C780.488586,453.987335 779.020752,454.845215 777.817810,455.983002 
	C774.420288,459.196503 771.131470,462.524841 767.482300,465.904968 
	C767.265564,444.331116 763.241455,423.190247 758.934998,402.087250 
	C758.710938,400.989258 758.304565,399.928467 758.295166,398.403503 
	C760.243103,396.721161 761.963379,395.581268 763.494690,394.227631 
	C765.771606,392.215027 767.914978,390.051331 770.115234,387.951904 
	C772.365173,396.206604 775.258057,404.349548 776.716431,412.741760 
	C778.983154,425.785461 780.273865,438.998749 781.906860,452.570923 
z"/>
<path fill="#C40EAC" opacity="1.000000" stroke="none" 
	d="
M787.006104,598.648193 
	C784.836365,595.996643 782.932861,592.939148 780.808411,590.043884 
	C779.295410,587.981934 777.484924,586.138306 775.486328,584.098511 
	C779.226807,569.755615 783.394653,555.540588 787.295227,541.252563 
	C788.776062,535.828064 789.641907,530.235718 791.299805,524.457642 
	C793.654968,526.588318 795.490417,528.987183 797.343689,531.372253 
	C799.593445,534.267700 801.858276,537.151428 804.116577,540.040283 
	C802.291687,548.280701 800.934998,556.660767 798.529114,564.727844 
	C795.154175,576.044373 790.999146,587.128235 787.006104,598.648193 
z"/>
<path fill="#8210BE" opacity="1.000000" stroke="none" 
	d="
M180.880157,507.584473 
	C178.343384,510.159363 175.872971,512.338745 173.358215,514.465637 
	C171.557297,515.988831 169.697021,517.441833 167.514954,518.964722 
	C162.851852,497.133423 164.157074,474.996979 164.098694,452.463440 
	C169.269958,448.084930 174.375702,444.171265 179.800781,440.148865 
	C179.747391,457.073425 179.197281,474.105835 179.106369,491.140656 
	C179.077881,496.479218 180.285645,501.824371 180.880157,507.584473 
z"/>
<path fill="#BC0EAE" opacity="1.000000" stroke="none" 
	d="
M407.962097,775.114502 
	C398.046448,772.617615 387.978546,770.597717 378.256866,767.493591 
	C367.914917,764.191528 357.900848,759.862488 347.471100,755.589722 
	C350.479706,751.427185 353.760834,747.656738 357.041962,743.886353 
	C371.231201,748.594727 385.352966,753.522644 399.639984,757.912842 
	C406.147766,759.912537 412.982117,760.849365 419.644714,762.849976 
	C415.734772,767.325928 411.848419,771.220215 407.962097,775.114502 
z"/>
<path fill="#AE0FB2" opacity="1.000000" stroke="none" 
	d="
M356.863770,743.573242 
	C353.760834,747.656738 350.479706,751.427185 347.103516,755.515137 
	C327.008118,746.593933 307.854492,735.904602 290.375000,722.263550 
	C294.055847,718.535461 297.549255,715.211792 301.042633,711.888184 
	C318.562897,724.167786 336.861664,735.066528 356.863770,743.573242 
z"/>
<path fill="#CC0DAA" opacity="1.000000" stroke="none" 
	d="
M804.451904,539.818359 
	C801.858276,537.151428 799.593445,534.267700 797.343689,531.372253 
	C795.490417,528.987183 793.654968,526.588318 791.489380,524.096069 
	C791.782837,516.991272 792.581299,509.996185 792.975525,502.978394 
	C793.761719,488.981934 794.325989,474.972961 794.934937,460.505249 
	C796.643433,463.311340 798.125061,466.770264 800.219055,469.806915 
	C803.314697,474.296112 806.845459,478.485229 810.511414,482.900024 
	C809.607910,496.538849 808.468811,510.088257 807.117981,523.616455 
	C806.583679,528.967346 805.578247,534.271118 804.451904,539.818359 
z"/>
<path fill="#C80EAB" opacity="1.000000" stroke="none" 
	d="
M549.613037,757.106323 
	C545.627563,761.471375 541.180664,765.707153 536.910217,770.113953 
	C535.137024,771.943787 533.740540,774.138672 532.088196,776.500366 
	C519.933777,778.536621 507.900635,780.612671 495.780640,781.806946 
	C488.231750,782.550781 480.551483,781.961487 472.504395,781.552185 
	C472.815186,779.926758 473.473511,778.662781 474.302887,777.523254 
	C476.833893,774.045837 479.430695,770.616333 482.001892,767.168213 
	C503.877899,766.814697 525.294678,763.232239 546.472046,757.980957 
	C547.408630,757.748718 548.306763,757.361145 549.613037,757.106323 
z"/>
<path fill="#C40EAC" opacity="1.000000" stroke="none" 
	d="
M481.537781,767.097839 
	C479.430695,770.616333 476.833893,774.045837 474.302887,777.523254 
	C473.473511,778.662781 472.815186,779.926758 472.040344,781.483215 
	C453.504639,782.562622 435.206177,781.037781 417.106873,777.097961 
	C414.242767,776.474487 411.300995,776.208069 408.178589,775.445557 
	C411.848419,771.220215 415.734772,767.325928 419.862000,763.191895 
	C430.299622,764.247070 440.467560,765.901306 450.702332,766.721191 
	C458.623108,767.355713 466.627533,766.946899 474.594788,766.999268 
	C476.754364,767.013489 478.914032,767.018311 481.537781,767.097839 
z"/>
<path fill="#A00FB6" opacity="1.000000" stroke="none" 
	d="
M647.660400,743.207886 
	C650.510193,747.671265 653.017822,752.176575 655.815125,756.867310 
	C639.421997,768.441284 621.577026,777.614624 602.410156,784.657593 
	C600.345825,779.587280 598.674377,774.876465 597.002930,770.165649 
	C605.350220,766.106873 613.832886,762.300659 622.007629,757.919983 
	C630.598145,753.316589 638.893738,748.163025 647.660400,743.207886 
z"/>
<path fill="#A12626" opacity="1.000000" stroke="none" 
	d="
M368.993134,482.333862 
	C375.188263,482.977264 379.376678,480.373505 382.468506,475.376404 
	C384.469940,472.141602 387.430695,470.914520 391.322235,470.934113 
	C401.457245,470.985168 411.593658,470.653870 421.730255,470.583160 
	C423.458130,470.571106 425.189667,471.093567 426.919525,471.369080 
	C427.029480,471.845825 427.139435,472.322601 427.249390,472.799347 
	C420.432007,475.551208 413.614655,478.303040 405.853485,481.435852 
	C411.676331,483.049683 416.135193,484.285492 420.821472,485.812836 
	C406.096130,489.725342 391.179138,493.504120 376.176086,496.902863 
	C368.305023,498.685913 364.625336,491.911774 367.335541,486.286774 
	C367.901093,485.112946 368.327423,483.872101 368.993134,482.333862 
z"/>
<path fill="#B40EB0" opacity="1.000000" stroke="none" 
	d="
M441.584320,136.098633 
	C444.313507,141.144714 446.621826,146.122147 448.967621,151.466248 
	C430.623260,154.894257 412.241455,157.955597 393.431580,160.682281 
	C390.320618,155.862106 387.637634,151.376556 384.954681,146.891006 
	C394.677124,144.593750 404.341156,141.996689 414.139221,140.087662 
	C423.071747,138.347290 432.149628,137.353058 441.584320,136.098633 
z"/>
<path fill="#8710BC" opacity="1.000000" stroke="none" 
	d="
M163.913666,383.610474 
	C162.002151,381.141724 160.384277,378.115997 158.276947,375.481903 
	C156.412766,373.151764 154.003555,371.257690 151.500839,369.085144 
	C157.065994,350.303436 164.782242,332.376923 174.333344,315.139862 
	C176.101685,317.619354 177.321976,320.197144 179.009399,322.420410 
	C180.816208,324.800964 183.062973,326.847595 185.117722,329.039978 
	C178.716568,345.091553 172.301163,361.137512 165.932693,377.202057 
	C165.157303,379.158020 164.634384,381.214111 163.913666,383.610474 
z"/>
<path fill="#8C10BB" opacity="1.000000" stroke="none" 
	d="
M502.427368,179.899139 
	C503.921814,177.007370 505.842682,174.183685 507.756653,171.355301 
	C508.779633,169.843597 509.790619,168.323776 510.905426,166.487610 
	C519.212280,167.441040 527.538879,168.211502 535.601318,170.106155 
	C547.607361,172.927551 559.426880,176.542725 571.560364,180.306030 
	C568.515442,184.565002 565.235962,188.338089 561.956482,192.111176 
	C549.974976,189.238327 538.042175,186.136398 525.994324,183.575714 
	C518.368530,181.954926 510.571259,181.141068 502.427368,179.899139 
z"/>
<path fill="#9A0FB7" opacity="1.000000" stroke="none" 
	d="
M596.629822,770.107056 
	C598.674377,774.876465 600.345825,779.587280 602.027344,784.709473 
	C591.414856,789.078369 580.869812,793.264526 570.140015,796.906494 
	C563.851990,799.040833 557.269592,800.307800 550.374023,801.537842 
	C547.491577,796.462830 545.054626,791.814941 542.617676,787.167114 
	C558.848450,782.116882 575.082764,777.078064 591.304565,771.999207 
	C592.993286,771.470520 594.607788,770.704529 596.629822,770.107056 
z"/>
<path fill="#AE0FB2" opacity="1.000000" stroke="none" 
	d="
M736.881653,342.040894 
	C729.302979,329.516510 721.754822,316.973419 714.118530,304.484253 
	C712.678345,302.128906 710.950928,299.938232 709.244812,297.758698 
	C705.245544,292.649963 705.209290,287.842468 709.233948,284.970917 
	C713.655762,281.816010 717.860779,282.875336 721.665894,288.308197 
	C725.967529,294.449829 730.399719,300.524292 734.293579,306.921112 
	C739.117310,314.845642 743.446594,323.071198 747.782288,331.769714 
	C744.010620,335.595428 740.446167,338.818176 736.881653,342.040894 
z"/>
<path fill="#AA0FB3" opacity="1.000000" stroke="none" 
	d="
M300.878967,711.588501 
	C297.549255,715.211792 294.055847,718.535461 290.225311,721.950317 
	C284.165894,717.766724 278.091156,713.884155 272.799713,709.129761 
	C263.686157,700.941162 255.060287,692.209717 246.245575,683.095825 
	C249.521622,678.954590 252.781860,675.423645 256.042114,671.892761 
	C263.152222,678.886902 269.982941,686.197815 277.451324,692.785706 
	C284.872192,699.331726 292.934326,705.150940 300.878967,711.588501 
z"/>
<path fill="#8210BE" opacity="1.000000" stroke="none" 
	d="
M358.339081,791.005371 
	C355.281494,785.777222 352.507904,780.749512 349.873657,775.649902 
	C349.068298,774.090820 348.645355,772.334229 348.044281,770.275513 
	C355.197144,772.518250 362.260498,775.449890 369.530823,777.718445 
	C380.043915,780.998901 390.706970,783.798950 401.742676,787.328735 
	C404.786926,793.513184 407.394470,799.172729 410.002045,804.832336 
	C403.126617,803.541992 396.124481,802.710510 389.405151,800.854919 
	C379.060425,797.998291 368.909698,794.439209 358.339081,791.005371 
z"/>
<path fill="#B40EB0" opacity="1.000000" stroke="none" 
	d="
M736.940552,342.405853 
	C740.446167,338.818176 744.010620,335.595428 747.812988,332.132050 
	C757.941772,349.289215 764.896484,367.854767 770.070251,387.549194 
	C767.914978,390.051331 765.771606,392.215027 763.494690,394.227631 
	C761.963379,395.581268 760.243103,396.721161 758.240173,397.996277 
	C752.250793,379.109680 745.896606,360.460022 736.940552,342.405853 
z"/>
<path fill="#C40EAC" opacity="1.000000" stroke="none" 
	d="
M658.426880,686.902466 
	C652.297668,686.464966 646.476562,685.891174 640.303711,685.104736 
	C649.042664,676.353455 658.323425,668.005737 667.158203,659.210144 
	C673.186035,653.209045 678.590942,646.582214 685.053223,640.104309 
	C690.925842,640.329651 696.019653,640.685791 701.113464,641.041931 
	C690.088135,656.490417 676.902344,670.003113 663.314636,683.149353 
	C661.923767,684.495117 660.267883,685.567078 658.426880,686.902466 
z"/>
<path fill="#9210B9" opacity="1.000000" stroke="none" 
	d="
M184.973145,585.489258 
	C188.688248,582.129700 192.425888,579.151123 196.498657,576.086853 
	C201.613708,586.501892 206.154495,597.120544 211.256012,607.462585 
	C214.770599,614.587463 219.061859,621.329224 222.696808,628.638916 
	C218.640335,631.838501 214.893051,634.641418 211.145752,637.444336 
	C200.429688,621.266724 191.703476,604.080200 184.973145,585.489258 
z"/>
<path fill="#9D0FB6" opacity="1.000000" stroke="none" 
	d="
M211.125702,637.818726 
	C214.893051,634.641418 218.640335,631.838501 222.752686,628.996155 
	C234.002747,643.066162 244.887741,657.175537 255.907410,671.588867 
	C252.781860,675.423645 249.521622,678.954590 246.107269,682.794250 
	C238.001190,673.532593 229.886978,664.090698 222.163651,654.339294 
	C218.123276,649.237854 214.769531,643.592712 211.125702,637.818726 
z"/>
<path fill="#7B11C0" opacity="1.000000" stroke="none" 
	d="
M567.142517,220.417480 
	C573.018005,219.452682 579.082947,218.804153 585.145386,218.132477 
	C587.576355,217.863129 590.001648,217.542786 592.767334,217.096985 
	C601.995544,221.422516 611.142029,225.461548 619.702087,230.497452 
	C627.712524,235.209991 635.101440,240.979111 642.550293,246.803986 
	C637.876038,247.453262 633.407471,247.464111 628.958130,247.762833 
	C626.917480,247.899872 624.914734,248.602478 622.894836,249.048584 
	C605.320740,237.749161 586.949707,228.012924 567.142517,220.417480 
z"/>
<path fill="#8210BE" opacity="1.000000" stroke="none" 
	d="
M280.650421,265.031158 
	C284.656616,265.740601 288.341553,266.687286 292.069611,267.412170 
	C293.799957,267.748596 295.614166,267.653625 297.750000,267.901489 
	C289.716187,276.224792 281.104156,284.191528 273.003967,292.648499 
	C267.354492,298.546783 262.406525,305.117004 256.577148,311.676453 
	C250.633850,311.963226 245.258606,311.960632 239.883362,311.958069 
	C251.516418,294.760254 265.352112,279.467682 280.650421,265.031158 
z"/>
<path fill="#8710BC" opacity="1.000000" stroke="none" 
	d="
M683.105896,282.953217 
	C695.924744,297.267578 707.638000,312.391693 716.716370,329.758972 
	C711.916016,330.868927 707.401855,331.455841 702.887634,332.042725 
	C692.032776,316.090179 681.066284,300.225525 667.408081,286.200684 
	C672.790405,284.815338 677.948181,283.884277 683.105896,282.953217 
z"/>
<path fill="#C40EAC" opacity="1.000000" stroke="none" 
	d="
M305.907684,684.578857 
	C302.184052,685.257935 298.323578,685.616699 294.466125,686.005615 
	C292.529572,686.200867 290.598572,686.451050 288.306396,686.890015 
	C273.891571,675.653564 261.474884,662.634583 250.596207,648.136230 
	C249.908539,647.219727 248.985565,646.479797 248.415253,645.260925 
	C254.050385,644.577454 259.442322,644.290649 264.834259,644.003906 
	C278.480225,657.426270 292.126160,670.848633 305.907684,684.578857 
z"/>
<path fill="#9210B9" opacity="1.000000" stroke="none" 
	d="
M542.188599,787.145630 
	C545.054626,791.814941 547.491577,796.462830 549.965088,801.471802 
	C543.036865,803.371216 536.122192,805.214294 529.094604,806.371521 
	C520.068237,807.857971 510.951141,808.793518 501.399231,809.551636 
	C499.691742,807.032349 498.160828,805.041626 497.300262,802.794189 
	C496.241974,800.030151 495.742920,797.051941 495.002136,794.166260 
	C510.587921,791.818909 526.173706,789.471558 542.188599,787.145630 
z"/>
<path fill="#8C10BB" opacity="1.000000" stroke="none" 
	d="
M185.419449,328.861633 
	C183.062973,326.847595 180.816208,324.800964 179.009399,322.420410 
	C177.321976,320.197144 176.101685,317.619354 174.482574,314.770844 
	C182.968002,300.626404 191.646622,286.908722 200.793396,273.364197 
	C204.190094,278.062225 207.118637,282.587097 210.047195,287.111969 
	C201.938522,300.969086 193.829849,314.826202 185.419449,328.861633 
z"/>
<path fill="#AE0FB2" opacity="1.000000" stroke="none" 
	d="
M384.549377,146.935364 
	C387.637634,151.376556 390.320618,155.862106 393.020996,160.732544 
	C379.722015,165.556305 366.418823,170.035461 353.082855,174.414963 
	C347.464935,176.259857 342.669250,174.649445 341.284180,170.680649 
	C339.410706,165.312378 341.035522,161.270996 347.212524,159.073837 
	C359.413330,154.734009 371.821564,150.977448 384.549377,146.935364 
z"/>
<path fill="#9210B9" opacity="1.000000" stroke="none" 
	d="
M702.946167,332.400085 
	C707.401855,331.455841 711.916016,330.868927 716.769409,330.117889 
	C727.377686,346.310120 735.371277,363.708313 740.677490,382.569214 
	C735.853210,382.652924 731.370911,382.347687 726.888611,382.042450 
	C721.302979,369.844971 715.810852,357.603363 710.082153,345.473450 
	C708.015137,341.096802 705.380310,336.988312 702.946167,332.400085 
z"/>
<path fill="#8210BE" opacity="1.000000" stroke="none" 
	d="
M682.962585,282.648621 
	C677.948181,283.884277 672.790405,284.815338 667.263855,285.896484 
	C656.846130,277.113007 646.907776,268.050262 636.694824,259.308380 
	C632.516541,255.731934 627.744263,252.849442 623.068542,249.349915 
	C624.914734,248.602478 626.917480,247.899872 628.958130,247.762833 
	C633.407471,247.464111 637.876038,247.453262 642.694458,247.111603 
	C647.359863,250.090179 651.985596,252.935852 655.911621,256.543091 
	C665.059937,264.948547 673.871338,273.720520 682.962585,282.648621 
z"/>
<path fill="#9A0FB7" opacity="1.000000" stroke="none" 
	d="
M274.047363,220.109467 
	C262.583344,230.680176 251.119324,241.250870 239.171783,251.671417 
	C236.087982,246.666245 233.487717,241.811264 230.887451,236.956268 
	C242.008743,226.970139 253.130020,216.984009 264.783447,207.243256 
	C268.226166,211.695572 271.136749,215.902512 274.047363,220.109467 
z"/>
<path fill="#9210B9" opacity="1.000000" stroke="none" 
	d="
M562.158081,192.424927 
	C565.235962,188.338089 568.515442,184.565002 571.898071,180.480011 
	C586.770142,186.367233 601.538940,192.566895 616.309021,198.763229 
	C616.764526,198.954315 617.234619,199.110855 617.694885,199.880875 
	C614.579468,204.222122 611.467102,207.965988 608.354675,211.709839 
	C593.023010,205.386124 577.691406,199.062408 562.158081,192.424927 
z"/>
<path fill="#8710BC" opacity="1.000000" stroke="none" 
	d="
M410.362610,805.023438 
	C407.394470,799.172729 404.786926,793.513184 402.090576,787.510254 
	C417.054413,789.453003 432.106995,791.739075 447.666595,794.431763 
	C450.782745,800.170166 453.391876,805.501892 456.001007,810.833679 
	C440.908386,808.960632 425.815765,807.087585 410.362610,805.023438 
z"/>
<path fill="#9210B9" opacity="1.000000" stroke="none" 
	d="
M230.584961,237.093338 
	C233.487717,241.811264 236.087982,246.666245 238.867371,251.815643 
	C229.587494,263.676086 220.128479,275.242126 210.358322,286.960052 
	C207.118637,282.587097 204.190094,278.062225 201.104263,273.216309 
	C204.532425,267.869965 207.822968,262.597900 211.772415,257.877106 
	C217.699860,250.791946 224.089417,244.093369 230.584961,237.093338 
z"/>
<path fill="#8C10BB" opacity="1.000000" stroke="none" 
	d="
M239.586426,312.130615 
	C245.258606,311.960632 250.633850,311.963226 256.421814,311.982819 
	C246.108017,327.100128 236.428589,342.817780 228.104462,359.686127 
	C223.050064,359.118530 218.607773,358.560059 214.165482,358.001587 
	C222.540146,342.768768 230.914810,327.535980 239.586426,312.130615 
z"/>
<path fill="#A00FB6" opacity="1.000000" stroke="none" 
	d="
M274.357758,219.960724 
	C271.136749,215.902512 268.226166,211.695572 265.133698,207.191116 
	C273.059052,200.910278 281.147552,194.901291 289.286316,188.961166 
	C291.391388,187.424774 293.654266,186.104630 295.844208,184.684464 
	C300.394531,181.733612 305.826996,182.723709 308.411224,186.975342 
	C310.398621,190.244949 308.705566,195.932892 305.076630,198.469666 
	C294.927063,205.564575 284.802551,212.695343 274.357758,219.960724 
z"/>
<path fill="#9210B9" opacity="1.000000" stroke="none" 
	d="
M213.997925,358.333313 
	C218.607773,358.560059 223.050064,359.118530 227.800461,359.862762 
	C223.021957,374.487122 217.925537,388.922272 212.864761,403.369904 
	C212.382675,404.746155 212.123596,406.200531 211.009750,407.825867 
	C205.894196,408.022400 201.529922,408.011627 197.165649,408.000885 
	C202.720551,391.555603 208.275452,375.110321 213.997925,358.333313 
z"/>
<path fill="#8C10BB" opacity="1.000000" stroke="none" 
	d="
M456.465454,810.900330 
	C453.391876,805.501892 450.782745,800.170166 448.087646,794.502319 
	C454.934418,794.444153 461.868561,794.975830 468.799347,794.934875 
	C477.235229,794.885010 485.668304,794.353088 494.552368,794.098022 
	C495.742920,797.051941 496.241974,800.030151 497.300262,802.794189 
	C498.160828,805.041626 499.691742,807.032349 500.963928,809.485352 
	C486.311646,810.211609 471.620758,810.589294 456.465454,810.900330 
z"/>
<path fill="#BC0EAE" opacity="1.000000" stroke="none" 
	d="
M701.416626,640.879517 
	C696.019653,640.685791 690.925842,640.329651 685.359253,639.965332 
	C689.992798,632.452759 695.300232,625.075378 700.144775,617.405640 
	C704.397888,610.672241 708.132202,603.611145 712.619019,596.695007 
	C717.706299,597.463623 722.270264,598.232056 726.834229,599.000488 
	C718.462769,612.906067 710.091309,626.811584 701.416626,640.879517 
z"/>
<path fill="#AE0FB2" opacity="1.000000" stroke="none" 
	d="
M729.882751,554.960449 
	C732.766724,542.964539 735.708435,530.982056 738.497253,518.964172 
	C739.268738,515.639648 739.376953,512.159973 740.167053,508.841370 
	C741.035767,505.192566 745.384766,502.444794 748.571838,504.272614 
	C750.988037,505.658325 754.057556,509.455505 753.668518,511.606781 
	C751.100586,525.808044 747.675537,539.854370 744.518250,553.948608 
	C744.487000,554.088257 744.300842,554.193237 743.624878,554.563477 
	C738.669434,554.861816 734.276062,554.911133 729.882751,554.960449 
z"/>
<path fill="#9A0FB7" opacity="1.000000" stroke="none" 
	d="
M608.675354,211.844009 
	C611.467102,207.965988 614.579468,204.222122 617.870483,200.185776 
	C629.273376,206.670837 640.507996,213.431473 651.712341,220.241989 
	C653.647827,221.418518 655.454712,222.806595 657.251831,224.541229 
	C653.752136,228.338943 650.321716,231.692398 646.891296,235.045868 
	C638.507935,229.772293 630.160706,224.440033 621.725891,219.250107 
	C617.566040,216.690521 613.244446,214.393814 608.675354,211.844009 
z"/>
<path fill="#BC0EAE" opacity="1.000000" stroke="none" 
	d="
M264.803833,643.668823 
	C259.442322,644.290649 254.050385,644.577454 248.269287,644.951294 
	C239.338989,631.592163 230.797836,618.145935 222.617889,604.333374 
	C227.357452,603.295776 231.735825,602.624573 236.114197,601.953369 
	C243.020508,612.463806 249.843567,623.030396 256.879822,633.453125 
	C259.230896,636.935791 262.126648,640.050720 264.803833,643.668823 
z"/>
<path fill="#A00FB6" opacity="1.000000" stroke="none" 
	d="
M647.039673,235.356094 
	C650.321716,231.692398 653.752136,228.338943 657.523376,224.786560 
	C667.341858,232.657639 676.927490,240.605850 686.243530,248.858337 
	C689.907593,252.104065 689.930969,256.082642 687.151794,259.327271 
	C684.346802,262.602203 680.776978,262.863861 676.633179,260.105774 
	C675.686279,259.475494 674.646362,258.959656 673.784302,258.231354 
	C664.903015,250.728531 656.049377,243.192871 647.039673,235.356094 
z"/>
<path fill="#9A0FB7" opacity="1.000000" stroke="none" 
	d="
M726.937622,382.434082 
	C731.370911,382.347687 735.853210,382.652924 740.726440,382.961182 
	C744.752136,397.117950 748.384766,411.272278 752.029175,425.423523 
	C752.187256,426.037415 752.454102,426.623291 752.346924,427.656555 
	C747.738342,428.394958 743.453064,428.699036 739.167847,429.003113 
	C736.460388,417.956848 733.828369,406.891296 731.008423,395.873779 
	C729.881226,391.469818 728.339600,387.171906 726.937622,382.434082 
z"/>
<path fill="#B40EB0" opacity="1.000000" stroke="none" 
	d="
M729.565674,555.158142 
	C734.276062,554.911133 738.669434,554.861816 743.448486,554.906982 
	C739.703247,566.367798 735.629578,577.755615 731.404236,589.086853 
	C730.222412,592.256165 728.593079,595.258606 727.001587,598.669067 
	C722.270264,598.232056 717.706299,597.463623 712.868042,596.413452 
	C718.145386,582.539734 723.696960,568.947754 729.565674,555.158142 
z"/>
<path fill="#9D0FB6" opacity="1.000000" stroke="none" 
	d="
M197.097839,408.409149 
	C201.529922,408.011627 205.894196,408.022400 210.688797,408.036560 
	C209.599518,416.652130 207.980408,425.248291 206.593231,433.881744 
	C205.564926,440.281769 204.837982,446.730255 203.505219,453.534668 
	C198.743958,453.941162 194.454315,453.970154 190.164642,453.999146 
	C191.442291,444.182098 192.612930,434.349487 194.040527,424.554291 
	C194.809860,419.275574 196.019226,414.060944 197.097839,408.409149 
z"/>
<path fill="#B40EB0" opacity="1.000000" stroke="none" 
	d="
M236.060303,601.588379 
	C231.735825,602.624573 227.357452,603.295776 222.571945,603.983521 
	C216.778503,591.857971 211.377594,579.722229 206.029205,567.563416 
	C205.514023,566.392273 205.324905,565.077759 205.321259,563.284790 
	C210.050522,562.826660 214.442993,562.913452 218.835449,563.000244 
	C224.559113,575.741333 230.282776,588.482300 236.060303,601.588379 
z"/>
<path fill="#A00FB6" opacity="1.000000" stroke="none" 
	d="
M739.101074,429.430908 
	C743.453064,428.699036 747.738342,428.394958 752.427979,428.046997 
	C753.888916,440.417633 755.083435,452.822632 755.937439,465.251038 
	C756.304382,470.590820 754.276855,472.833923 750.044312,473.001282 
	C745.404724,473.184784 742.272766,470.090546 741.993835,465.119080 
	C741.699219,459.868500 741.452209,454.612305 741.002808,449.374115 
	C740.443970,442.860626 739.698914,436.363098 739.101074,429.430908 
z"/>
<path fill="#AE0FB2" opacity="1.000000" stroke="none" 
	d="
M218.894165,562.618103 
	C214.442993,562.913452 210.050522,562.826660 205.272125,562.892822 
	C201.588013,550.679016 198.289825,538.312195 195.308502,525.316650 
	C200.027802,525.125793 204.430237,525.563721 208.832687,526.001648 
	C212.206100,538.079773 215.579498,550.157837 218.894165,562.618103 
z"/>
<path fill="#A00FB6" opacity="1.000000" stroke="none" 
	d="
M190.097168,454.463654 
	C194.454315,453.970154 198.743958,453.941162 203.434525,453.955811 
	C203.881882,465.690216 203.928314,477.380951 203.487091,489.540741 
	C198.721405,490.339813 194.443405,490.669830 190.165405,490.999878 
	C190.120163,478.975952 190.074921,466.952057 190.097168,454.463654 
z"/>
<path fill="#AA0FB3" opacity="1.000000" stroke="none" 
	d="
M190.101318,491.423157 
	C194.443405,490.669830 198.721405,490.339813 203.417358,490.004822 
	C205.536942,501.731781 207.238602,513.463745 208.886475,525.598694 
	C204.430237,525.563721 200.027802,525.125793 195.286133,524.896118 
	C193.964752,519.789795 192.826309,514.498047 192.042816,509.154358 
	C191.200638,503.410492 190.691620,497.617828 190.101318,491.423157 
z"/>
<path fill="#7B11C0" opacity="1.000000" stroke="none" 
	d="
M232.057953,686.634766 
	C231.446106,686.159973 230.779160,685.360779 230.077087,684.225464 
	C230.695602,684.696289 231.349228,685.503357 232.057953,686.634766 
z"/>
<path fill="#7B11C0" opacity="1.000000" stroke="none" 
	d="
M251.029114,728.339355 
	C251.825073,728.528259 252.761658,729.014404 253.828445,729.806580 
	C253.029007,729.620605 252.099365,729.128601 251.029114,728.339355 
z"/>
</svg>