<svg version="1.1" id="Layer_1" xmlns="http://www.w3.org/2000/svg" xmlns:xlink="http://www.w3.org/1999/xlink" x="0px" y="0px"
	 width="100%" viewBox="0 0 1943 846" enable-background="new 0 0 1943 846" xml:space="preserve">
<path fill="#FFFFFF" opacity="1.000000" stroke="none" 
	d="
M1471.000000,847.000000 
	C980.666748,847.000000 490.833496,847.000000 1.000197,847.000000 
	C1.000131,565.000122 1.000131,283.000275 1.000066,1.000311 
	C648.666443,1.000207 1296.332886,1.000207 1943.999512,1.000104 
	C1943.999634,282.999695 1943.999634,564.999390 1943.999756,846.999512 
	C1786.500000,847.000000 1629.000000,847.000000 1471.000000,847.000000 
M78.753174,453.864227 
	C80.890350,466.897614 83.027527,479.931030 85.091423,493.792053 
	C89.116600,509.194885 93.141777,524.597717 96.994476,540.780579 
	C99.662399,547.502441 102.090515,554.332153 105.055435,560.920349 
	C109.308205,570.370239 113.952553,579.643799 118.280396,589.659668 
	C132.287796,612.813904 145.396408,636.675049 163.907608,656.641907 
	C174.339340,667.894043 186.317398,677.712646 197.802231,688.846436 
	C199.667282,690.716980 201.445633,692.684448 203.410782,694.443176 
	C222.966324,711.945312 246.079788,724.089966 268.934479,736.259338 
	C309.773315,758.004883 353.830109,769.078613 400.006592,771.631897 
	C452.602386,774.540039 503.161987,765.517517 551.750427,745.335388 
	C558.605591,742.487915 565.186340,738.979980 572.613281,735.826538 
	C597.630066,723.839050 619.687561,707.451355 641.586121,689.665466 
	C650.671387,681.225464 660.286133,673.277161 668.701172,664.214783 
	C678.146729,654.042419 686.508179,642.863281 695.880432,631.739746 
	C699.721375,625.507935 703.267456,619.070129 707.453247,613.079346 
	C727.619629,584.216370 739.766052,551.784973 749.391357,518.325317 
	C753.060608,505.570435 755.240173,492.378662 757.895264,479.344543 
	C758.957397,474.130615 755.112976,468.350708 750.460144,467.426758 
	C746.296814,466.599945 742.945923,469.703827 741.712097,475.579071 
	C741.405029,477.041351 741.317139,478.554352 740.950195,479.998688 
	C736.253174,498.486755 732.873901,517.450378 726.467407,535.328369 
	C718.088867,558.709778 709.195435,582.097900 694.846741,602.844238 
	C688.527039,611.981567 682.888672,621.590149 676.381165,631.332336 
	C657.853333,649.862610 639.325500,668.392822 620.131714,687.051025 
	C597.838928,703.121765 574.393372,717.184570 549.131836,728.143799 
	C544.617920,730.102112 540.382812,732.702942 535.244324,735.081970 
	C529.806702,736.600708 524.357666,738.079956 518.933350,739.644897 
	C494.132416,746.800049 469.087646,752.828308 443.209534,754.213562 
	C418.057648,755.559998 392.869324,754.655090 368.041656,750.707520 
	C340.637848,746.350464 313.688721,739.894714 288.697510,726.920715 
	C264.065613,714.133240 238.830368,702.445740 216.868378,684.373108 
	C204.992432,672.534668 193.361435,660.436707 181.170135,648.932495 
	C169.490494,637.911072 159.637238,625.553833 151.043228,612.057007 
	C145.435562,603.250244 139.455414,594.680603 133.577805,585.300354 
	C126.648216,569.886475 119.718636,554.472595 112.822723,538.248657 
	C108.789520,523.165405 104.756317,508.082184 100.889221,492.182983 
	C100.222733,487.291229 99.700409,482.374542 98.858376,477.513184 
	C97.323509,468.651794 95.599083,459.823273 94.407959,450.151642 
	C94.453011,435.426086 94.498055,420.700562 94.883163,405.204590 
	C95.263321,402.925629 95.650070,400.647736 96.022560,398.367523 
	C98.601860,382.578033 101.178215,366.788055 104.237091,350.440765 
	C106.153397,345.131592 108.160408,339.853119 109.970383,334.507965 
	C118.068382,310.593292 125.592491,286.461151 139.778564,265.134033 
	C146.120621,255.599503 151.952225,245.725418 158.601624,235.687592 
	C159.369202,234.815155 160.110992,233.918381 160.908142,233.073853 
	C176.642303,216.404602 191.395218,198.645050 208.370651,183.352829 
	C229.885681,163.971130 254.716095,148.928284 280.728821,136.038239 
	C282.302277,135.258530 283.666656,134.056839 285.841461,132.777756 
	C292.793854,130.643173 299.764313,128.565536 306.695251,126.363388 
	C328.097290,119.563377 349.340637,112.247383 371.686249,108.883301 
	C399.219910,104.738182 426.788086,104.737213 454.370209,107.882225 
	C490.265717,111.975143 525.272339,119.659660 557.776672,136.070679 
	C572.004822,143.254333 585.745361,151.403900 600.100586,159.678894 
	C601.933044,161.098404 603.838196,162.434128 605.586853,163.950317 
	C623.732239,179.683762 643.086304,194.267593 659.604187,211.559326 
	C673.807068,226.427689 684.764648,244.396194 697.222473,261.674957 
	C701.093750,268.813660 705.200378,275.836578 708.783447,283.117157 
	C714.783752,295.309540 720.450195,307.666260 726.286133,320.730591 
	C726.566467,322.015991 726.764221,323.325989 727.139221,324.583130 
	C735.213806,351.651184 742.562256,378.850708 743.418457,407.350647 
	C743.582581,412.812469 743.948486,418.334351 744.972778,423.684692 
	C745.910950,428.585205 750.652283,431.063690 755.776428,430.056274 
	C760.369751,429.153229 761.170898,425.699951 761.049988,421.733704 
	C761.014404,420.569946 761.012634,419.403534 760.928345,418.243195 
	C759.183044,394.206635 757.100159,370.226898 749.757812,347.062897 
	C747.012512,338.402008 744.433105,329.688599 742.141968,320.265259 
	C737.455505,307.873047 733.341675,295.221832 727.892273,283.174744 
	C723.898193,274.344727 718.151306,266.307556 713.126160,257.173828 
	C709.976074,251.545349 707.172546,245.687286 703.619385,240.325943 
	C681.649170,207.174500 654.704895,178.792358 621.667114,155.432861 
	C601.574463,137.918335 577.550842,126.969353 553.718018,116.101059 
	C517.803467,99.723236 479.690674,91.226723 440.288940,89.183029 
	C402.460236,87.220917 365.215363,91.783363 328.557709,101.100800 
	C304.440674,107.230736 281.298279,115.883553 259.265778,129.027954 
	C227.063019,146.554306 197.340363,167.500214 172.547363,194.662766 
	C160.599884,207.752090 150.108795,222.170761 138.357193,236.303268 
	C135.694855,240.904572 132.847717,245.410019 130.402771,250.124069 
	C120.791153,268.656006 108.528656,285.829712 102.356407,306.129852 
	C97.680458,321.508759 92.414680,336.708313 87.133392,352.747528 
	C85.082375,364.464050 82.852722,376.153198 81.052193,387.908112 
	C80.084198,394.227661 79.852615,400.660034 78.825157,407.726257 
	C78.675850,418.519348 78.446945,429.312256 78.416580,440.105682 
	C78.404518,444.396393 78.832268,448.688293 78.753174,453.864227 
M783.766846,566.601196 
	C780.693542,573.577148 777.923218,580.706299 774.488220,587.499390 
	C765.440857,605.391357 756.104736,623.137268 746.242676,641.145386 
	C734.599060,656.022766 723.127930,671.039917 711.242004,685.721130 
	C704.896423,693.559204 697.834534,700.817383 690.427490,708.220947 
	C680.161255,717.130005 670.093689,726.282410 659.569397,734.875427 
	C650.210938,742.516724 640.346252,749.538086 629.989014,756.823914 
	C626.074341,758.976074 622.118225,761.056702 618.251831,763.292419 
	C596.149597,776.072327 573.860046,788.332947 549.010437,795.283875 
	C533.870728,799.518738 518.999451,804.712769 503.187988,809.463196 
	C491.252899,811.166870 479.305389,812.789185 467.387482,814.605713 
	C460.579437,815.643433 453.819580,816.997437 446.103882,818.065125 
	C443.943390,818.030762 441.777924,817.884155 439.623138,817.979065 
	C414.319122,819.093872 389.110992,819.171082 364.083862,814.073364 
	C354.185211,812.057007 344.006866,811.413879 333.526703,809.555176 
	C332.905487,809.333496 332.292664,809.083740 331.661835,808.894043 
	C303.882416,800.540100 276.028534,792.834045 250.030258,779.092529 
	C219.476257,762.943176 189.848404,745.769531 164.283722,722.282898 
	C153.766861,712.620911 143.419830,702.774109 132.767456,692.375427 
	C129.019516,687.719116 125.339073,683.006531 121.513016,678.415344 
	C88.614571,638.938049 64.447243,594.725281 49.375664,545.571716 
	C46.356007,535.723511 43.368866,525.865417 40.682190,515.268311 
	C33.431622,478.997101 29.699738,442.449188 31.978615,405.420288 
	C32.110313,403.280365 31.888063,401.118683 32.419426,398.433838 
	C34.947701,384.365723 37.427441,370.288696 40.019466,356.232330 
	C42.127029,344.803162 44.369190,333.398834 47.012257,321.376801 
	C52.951553,306.208710 58.870880,291.032745 64.839363,275.876160 
	C67.454956,269.234009 69.505516,262.257874 72.971436,256.083893 
	C81.845634,240.275864 91.384087,224.841141 100.606697,209.227478 
	C101.345314,207.977020 101.698067,206.498642 102.906120,205.096680 
	C106.496109,200.983231 110.235870,196.989731 113.645920,192.732147 
	C121.525780,182.893799 129.245834,172.927475 137.695068,162.874878 
	C139.114182,161.733002 140.602753,160.666824 141.942078,159.437988 
	C164.003906,139.196106 186.064240,118.958977 211.548874,102.926750 
	C214.071762,101.339622 216.565109,99.591042 218.705139,97.535309 
	C222.374695,94.010231 223.133026,88.235718 220.746964,84.778648 
	C217.950211,80.726555 212.923508,79.413162 207.850479,81.721382 
	C205.298065,82.882729 202.803497,84.330704 200.585144,86.041222 
	C184.387924,98.530571 168.078964,110.887131 152.198990,123.770874 
	C143.717697,130.651917 136.018585,138.497055 127.345055,146.159332 
	C119.708923,154.425232 111.726814,162.404495 104.558052,171.057602 
	C99.762398,176.846222 96.122536,183.592361 91.298630,190.091583 
	C71.355942,218.973602 52.182636,248.306671 39.898422,281.472778 
	C36.922276,289.508087 34.765755,297.846954 31.594074,306.415405 
	C23.363958,330.272003 17.340357,354.602814 15.180184,380.347748 
	C10.763594,399.726471 11.780292,419.402313 12.492252,438.981049 
	C13.038996,454.016357 11.426433,469.296967 16.150915,484.826141 
	C16.372635,486.137421 16.690084,487.440613 16.801973,488.761200 
	C19.152096,516.499207 26.695862,543.045044 36.179153,568.997742 
	C61.490456,638.266541 102.013527,696.977844 159.478424,744.504700 
	C170.342499,752.740906 180.902603,761.419678 192.127441,769.130737 
	C226.131973,792.490540 263.561493,808.813477 302.825287,820.891113 
	C315.910126,824.916016 329.592560,826.997986 343.585968,830.465759 
	C347.659393,831.146423 351.709686,832.058411 355.810181,832.468018 
	C374.615967,834.346741 393.404480,836.829163 412.261169,837.622864 
	C425.787231,838.192078 439.411194,836.435303 453.893524,835.918884 
	C458.855713,835.607666 463.908447,835.787659 468.763062,834.892761 
	C483.212952,832.229309 497.584930,829.143372 512.764587,826.432312 
	C516.824829,825.717590 521.002197,825.396057 524.926819,824.226440 
	C558.260071,814.292175 590.691589,802.068848 621.096985,784.989441 
	C627.724854,781.266357 633.817810,776.591064 640.891541,772.271484 
	C643.217468,771.030884 645.779907,770.094482 647.830750,768.500122 
	C660.644165,758.539124 673.429382,748.537537 686.037170,738.318970 
	C691.003906,734.293518 695.490051,729.675049 700.849792,725.104248 
	C713.702026,711.394531 727.044922,698.103638 739.230164,683.824707 
	C747.061707,674.647400 753.190125,664.016602 760.733826,653.841492 
	C769.834045,637.826843 779.212646,621.961487 787.911072,605.731506 
	C791.955139,598.185730 794.678162,589.931885 798.523682,581.527039 
	C802.016052,571.707458 806.055298,562.041504 808.868164,552.031006 
	C812.754211,538.201416 815.716003,524.112122 819.734802,509.732727 
	C822.124878,487.581482 825.956482,465.467255 826.526855,443.269257 
	C827.185974,417.612518 827.853638,391.691345 821.846191,366.325806 
	C816.330627,343.037292 812.585022,319.146606 804.933228,296.581360 
	C782.243774,229.669327 744.322205,172.386429 690.844238,125.896446 
	C676.820984,113.705627 662.385315,101.725037 646.875916,91.578629 
	C629.662476,80.317429 611.273010,70.731987 592.876892,61.444374 
	C581.070984,55.483955 568.328064,51.379566 555.316528,46.099438 
	C525.211304,36.250626 494.937195,27.156809 462.260742,25.068670 
	C435.874695,20.843740 409.426300,23.492201 382.112457,24.144295 
	C379.797882,24.258696 377.436646,24.116922 375.176300,24.528830 
	C359.808441,27.329355 344.246643,29.416466 329.160767,33.327915 
	C308.462616,38.694489 288.106873,45.396210 267.659851,51.705421 
	C263.093781,53.114342 259.785187,56.070724 259.975891,61.488873 
	C260.231293,68.744781 266.111877,72.691093 273.880554,70.232605 
	C286.711884,66.171974 299.411072,61.694160 312.172028,57.410343 
	C316.412170,55.986935 320.577240,54.070263 324.938263,53.324974 
	C340.674347,50.635731 356.501740,48.483406 372.246735,45.842686 
	C378.231293,44.838970 384.086212,43.062283 390.743958,42.036575 
	C393.192810,42.308571 395.640137,42.800316 398.090759,42.817345 
	C415.655273,42.939392 433.221680,42.861794 450.784821,43.071579 
	C457.857727,43.156063 464.923889,43.803131 472.673706,44.604565 
	C474.184906,45.283405 475.635376,46.196972 477.216339,46.606289 
	C506.444641,54.173355 535.688538,61.680248 565.197327,69.818245 
	C568.418457,71.526978 571.546387,73.447388 574.874817,74.912308 
	C616.504517,93.234520 654.786072,116.748169 686.677979,149.462723 
	C703.158203,166.368073 719.625793,183.611267 733.655640,202.515274 
	C767.453186,248.054703 789.727478,299.196472 800.286499,354.946808 
	C804.386963,376.596710 806.559875,398.764954 807.600525,420.792053 
	C808.413635,438.003082 806.101135,455.359711 805.220825,472.653839 
	C804.874695,479.453705 804.646423,486.259583 803.704651,493.458038 
	C803.476074,494.073395 803.195190,494.674805 803.026489,495.306152 
	C796.730896,518.869385 790.445740,542.435303 783.766846,566.601196 
M775.177856,421.783081 
	C774.908875,424.575073 774.539062,427.361572 774.387695,430.159943 
	C773.608826,444.554443 773.473022,459.013245 771.978394,473.331207 
	C770.485657,487.631409 767.652283,501.791718 765.069214,516.678833 
	C764.058167,519.122009 762.892578,521.513855 762.062134,524.016968 
	C757.928650,536.475891 754.497498,549.206787 749.680969,561.392090 
	C739.257629,587.762207 726.635803,613.087769 709.648315,635.933533 
	C694.897766,655.770996 678.037659,673.777954 659.908813,690.571106 
	C634.868469,713.766357 607.861633,734.431030 576.702454,748.582886 
	C555.718079,758.113464 533.686646,765.338745 511.580505,773.312561 
	C511.048645,773.482300 510.516785,773.652039 509.160095,773.866577 
	C491.045258,777.074707 473.012177,780.893188 454.794434,783.333191 
	C433.029694,786.248352 411.068970,785.628296 389.188232,784.181152 
	C377.785645,783.427063 366.423309,782.063904 354.811829,780.279358 
	C352.642181,779.524414 350.505768,778.650024 348.297089,778.035278 
	C339.053955,775.462463 329.718872,773.197083 320.548706,770.390381 
	C306.634521,766.131653 292.829346,761.516724 278.701843,756.406555 
	C241.144440,739.848083 207.429230,717.470398 177.440445,689.469055 
	C170.910812,683.372131 164.502563,677.145203 157.737198,670.365234 
	C154.299194,665.701355 150.981537,660.942688 147.400116,656.391724 
	C137.576706,643.908752 127.642471,631.513062 117.508263,618.411865 
	C116.154503,615.585754 114.917473,612.696411 113.428337,609.943542 
	C102.394997,589.546265 90.984871,569.271362 84.382156,546.899353 
	C79.318665,529.742554 75.076347,512.335938 70.787239,494.961823 
	C69.011665,487.769379 68.066956,480.371765 66.976341,472.190002 
	C66.452110,460.260071 65.618736,448.333740 65.481422,436.399353 
	C65.307335,421.268677 65.698700,406.131531 66.250786,390.337738 
	C67.814751,382.017365 69.449989,373.709625 70.930847,365.374481 
	C79.118164,319.291931 96.281708,276.841400 121.681297,237.534958 
	C145.943268,199.989014 176.314850,168.405045 212.674210,142.582458 
	C240.016724,123.163643 268.496124,105.813072 301.265259,96.786339 
	C322.867523,90.835686 344.416870,84.692818 366.874908,78.831764 
	C373.986816,78.202087 381.091980,77.133202 388.211884,77.023987 
	C410.807861,76.677361 433.409363,76.688759 456.773712,76.929848 
	C468.364929,78.970383 480.023193,80.695015 491.529114,83.137405 
	C503.836426,85.749931 516.353699,88.050629 528.142578,92.267494 
	C545.283325,98.398727 561.843933,106.147980 578.683472,113.131332 
	C580.285156,113.795547 582.110229,113.921165 583.869568,114.976555 
	C584.769165,115.660461 585.604431,116.457230 586.577698,117.011742 
	C609.566345,130.109207 632.118469,143.794281 651.491760,162.137009 
	C656.288025,166.678192 661.662354,170.705688 667.172607,174.364456 
	C671.377686,177.156616 675.600647,175.868622 678.546692,171.963379 
	C681.340759,168.259460 681.124451,163.665131 677.263733,160.342499 
	C664.032349,148.955231 651.261230,136.876053 637.085083,126.788704 
	C623.465698,117.097511 608.317871,109.554245 593.766663,100.370720 
	C593.504517,100.166237 593.271729,99.892715 592.976074,99.767067 
	C561.178101,86.251854 529.509949,72.290398 495.484497,65.155540 
	C485.468872,63.055347 475.151550,62.394127 464.469482,60.502224 
	C463.999207,60.349041 463.539520,60.123714 463.057129,60.052990 
	C434.011444,55.794163 404.983124,55.414326 375.109924,60.213028 
	C372.448212,60.256359 369.742432,60.001984 367.131439,60.388142 
	C333.625641,65.343559 301.334991,74.817245 270.358063,88.294922 
	C229.694656,105.987076 193.276627,130.252411 161.277710,161.132751 
	C128.071747,193.177963 101.516968,229.900772 81.817345,271.624725 
	C62.152866,313.274200 50.750435,357.063690 47.276203,403.909729 
	C47.249069,420.556305 46.727623,437.222168 47.375393,453.842438 
	C47.780766,464.243408 49.946510,474.575714 51.280613,485.768280 
	C56.991478,522.957336 67.095642,558.873840 83.624069,592.732666 
	C89.564545,604.901917 97.108650,616.288452 104.066399,628.745544 
	C104.099091,629.071899 104.028015,629.459412 104.179214,629.715942 
	C115.992798,649.755066 131.408325,666.958252 147.151291,684.687866 
	C163.455673,701.088989 179.727676,717.285461 198.848770,730.798157 
	C219.473663,745.373596 240.723938,758.456665 263.513367,769.167664 
	C264.949768,769.842773 266.549011,770.171509 268.674255,771.076904 
	C273.828400,773.280457 278.983887,775.480896 284.136414,777.688171 
	C302.773895,785.672241 322.319000,790.524963 342.521088,795.179260 
	C356.446228,797.450989 370.304901,800.385010 384.316895,801.791321 
	C396.189026,802.982788 408.277863,801.863892 420.201233,802.727783 
	C444.899139,804.517090 468.954163,800.493103 493.817078,795.975830 
	C500.956848,794.417969 508.242279,793.340637 515.213684,791.227356 
	C579.015808,771.885986 636.751282,742.138977 684.131531,694.008179 
	C717.941528,659.662598 744.359924,620.640015 763.379089,576.393555 
	C773.685120,552.417297 779.314209,527.141357 785.916443,501.376068 
	C788.212830,481.993988 791.117188,462.657684 792.581360,443.212952 
	C793.483032,431.238861 792.186157,419.099243 792.061401,406.132019 
	C789.940918,379.291382 786.890564,352.618683 777.858154,326.273346 
	C770.134766,293.712616 754.632019,264.517853 738.208191,235.802597 
	C732.202820,225.302933 725.108521,215.381134 717.902588,205.646072 
	C716.188904,203.330933 711.807129,201.432053 709.060181,201.874207 
	C706.253235,202.326035 702.255615,205.614594 701.838867,208.161911 
	C701.284241,211.551941 702.895325,215.958908 704.944336,219.010086 
	C726.113037,250.530975 745.897339,282.720520 757.139343,319.404480 
	C759.163574,326.009918 761.808960,332.425018 764.141296,339.785706 
	C764.106689,340.446594 763.922852,341.140076 764.059021,341.763672 
	C769.761719,367.879303 773.952820,394.208130 775.177856,421.783081 
M385.180237,558.018738 
	C385.993988,557.196777 386.845947,556.408936 387.615753,555.547729 
	C401.476654,540.041321 415.425537,524.612061 429.148926,508.984863 
	C439.569580,497.118622 449.700500,484.998016 460.618713,472.825531 
	C466.943298,465.591125 473.286377,458.372833 479.588562,451.118988 
	C491.752686,437.117950 503.893616,423.096771 516.700928,408.909943 
	C525.861450,398.837555 535.602844,389.221588 543.992981,378.543884 
	C550.351257,370.451965 547.470337,364.901581 537.463989,363.159027 
	C515.663269,359.362579 493.849579,355.640442 472.052795,351.821899 
	C465.797150,350.726013 459.581055,349.404388 452.059967,347.934814 
	C460.678101,334.249115 468.607758,321.820129 476.355591,309.278809 
	C479.825317,303.662415 482.930603,297.820892 486.850677,291.901764 
	C498.964630,273.206146 511.101562,254.525299 523.178772,235.805923 
	C526.878418,230.071533 530.679382,224.376846 533.955750,218.401764 
	C537.768372,211.448669 534.496521,205.754440 526.630981,204.954361 
	C525.473572,204.836655 524.300781,204.837189 523.135132,204.837051 
	C477.475403,204.831482 431.815674,204.822678 386.155945,204.842529 
	C379.449921,204.845459 376.897614,206.676865 374.655792,212.995453 
	C366.274689,236.617767 357.908997,260.245544 349.613525,283.897949 
	C349.304321,284.779541 349.785553,285.938416 349.257141,287.262268 
	C348.467133,288.873962 347.506958,290.425507 346.912903,292.106476 
	C339.303467,313.639099 331.709778,335.177460 324.188904,356.741150 
	C319.167755,371.137695 314.269104,385.577026 308.842255,400.578339 
	C308.566742,401.172150 308.243774,401.748840 308.022675,402.362244 
	C302.757751,416.969757 297.538696,431.593933 292.234283,446.187073 
	C289.199097,454.537231 294.119934,460.763611 302.904022,459.079010 
	C311.038910,457.518860 319.035889,455.252808 327.123718,453.431610 
	C349.265259,448.445801 371.422638,443.530609 393.839813,438.846893 
	C393.839813,438.846893 394.109467,439.102600 394.110809,439.851868 
	C392.669739,443.132111 391.225952,446.411163 389.788239,449.692841 
	C386.826691,456.452881 383.868347,463.214325 380.306702,470.279968 
	C379.264252,471.962677 378.088440,473.578156 377.200409,475.338776 
	C370.061737,489.491364 362.888153,503.627533 355.903442,517.856201 
	C349.851196,530.185364 344.031952,542.628845 337.448486,555.246277 
	C324.516205,580.315369 311.497894,605.340698 298.718018,630.487244 
	C295.861023,636.108887 299.778320,642.338074 305.979767,641.770935 
	C309.415070,641.456726 313.489288,639.662170 315.819092,637.172119 
	C326.724121,625.517090 337.226837,613.478394 347.675476,601.405457 
	C360.073944,587.079712 372.270111,572.578857 385.180237,558.018738 
M1014.982788,569.501831 
	C1040.764648,588.756104 1069.627075,600.440613 1101.599731,603.954346 
	C1139.307495,608.098206 1175.348022,602.257019 1208.913696,584.060120 
	C1241.524048,566.381165 1266.072876,540.892273 1281.956543,507.207581 
	C1298.189941,472.781494 1303.029175,436.681946 1298.081177,399.115540 
	C1292.934937,360.043427 1277.386353,325.567871 1249.211792,298.058960 
	C1202.892822,252.834183 1146.807617,238.402283 1083.982666,251.154968 
	C1038.009277,260.487030 1001.230042,285.239716 975.720276,324.635620 
	C946.948669,369.068878 940.196411,418.037750 951.529053,469.388184 
	C960.490540,509.994354 981.313293,543.502014 1014.982788,569.501831 
M1659.227783,449.145782 
	C1660.172241,445.099915 1660.713623,440.906860 1662.127441,437.032288 
	C1670.573486,413.886017 1689.945679,402.158234 1715.944580,404.204468 
	C1736.218262,405.800140 1746.783813,413.707031 1751.859009,433.435455 
	C1754.436401,443.453705 1755.425903,454.113129 1755.519043,464.497131 
	C1755.907227,507.819733 1755.682861,551.147827 1755.682983,594.473877 
	C1755.682983,596.251160 1755.682861,598.028442 1755.682861,599.812256 
	C1769.164917,599.812256 1782.076782,599.812256 1795.542236,599.812256 
	C1795.542236,597.492554 1795.542114,595.527771 1795.542114,593.562988 
	C1795.542236,552.403198 1795.520874,511.243408 1795.565186,470.083710 
	C1795.571899,463.922638 1795.623901,457.741150 1796.109375,451.605042 
	C1797.459106,434.539642 1804.514038,420.563416 1819.312378,411.261658 
	C1830.871826,403.995758 1843.687378,403.123383 1856.892456,404.595825 
	C1872.364990,406.321045 1882.449585,414.629883 1887.727783,429.162048 
	C1891.957886,440.808197 1892.612061,452.976196 1892.671387,465.110687 
	C1892.883057,508.435730 1892.753784,551.762451 1892.753418,595.088501 
	C1892.753418,596.666016 1892.753418,598.243469 1892.753418,599.726196 
	C1906.316772,599.726196 1919.192627,599.726196 1932.059082,599.726196 
	C1932.059082,550.461670 1932.008667,501.640625 1932.091797,452.819824 
	C1932.114990,439.215179 1930.447998,425.895142 1925.815308,413.101410 
	C1919.035156,394.377563 1907.913940,379.342072 1888.646240,371.847382 
	C1855.090088,358.794983 1812.797729,368.645874 1791.894897,402.960205 
	C1790.774414,404.799500 1789.222656,406.376068 1787.574341,408.448975 
	C1775.461792,380.648254 1753.960205,367.750092 1725.300171,366.560181 
	C1696.684570,365.372070 1674.055786,376.484558 1659.362305,402.303009 
	C1658.745117,400.264862 1658.605835,398.816650 1658.607422,397.368530 
	C1658.614624,390.537231 1658.448975,383.696045 1658.767700,376.878143 
	C1658.975342,372.437286 1657.375366,371.155762 1653.006470,371.307251 
	C1643.685913,371.630432 1634.346436,371.416931 1625.014648,371.404510 
	C1618.510864,371.395844 1618.489258,371.381866 1618.488770,378.019592 
	C1618.483398,450.007538 1618.482178,521.995483 1618.503174,593.983398 
	C1618.503784,595.909729 1618.767700,597.835876 1618.910645,599.786255 
	C1632.305786,599.786255 1645.201782,599.786255 1658.434448,599.786255 
	C1658.531982,597.613831 1658.680908,595.810974 1658.682983,594.007996 
	C1658.701416,577.844055 1658.649902,561.679932 1658.703613,545.516174 
	C1658.809082,513.691223 1658.968872,481.866486 1659.227783,449.145782 
M1397.002197,270.500000 
	C1397.002197,251.074905 1397.002197,231.649796 1397.002197,212.242645 
	C1383.460205,212.242645 1370.533447,212.242645 1357.388672,212.242645 
	C1357.388672,341.544006 1357.388672,470.600220 1357.388672,599.861267 
	C1370.650024,599.861267 1383.683350,599.861267 1397.002197,599.861267 
	C1397.002197,597.748230 1397.002319,595.940063 1397.002319,594.131897 
	C1397.002441,550.473145 1396.921509,506.814117 1397.045654,463.155701 
	C1397.089966,447.595276 1400.749268,433.158539 1411.807251,421.389099 
	C1423.776733,408.649445 1438.968628,403.634369 1455.902954,403.724396 
	C1472.312866,403.811584 1486.911011,408.443878 1495.830200,423.732880 
	C1501.318726,433.141205 1503.838989,443.546112 1503.894897,454.311951 
	C1504.137085,500.968323 1504.098755,547.626160 1504.161987,594.283447 
	C1504.164307,596.076599 1504.162231,597.869812 1504.162231,599.860962 
	C1517.650269,599.860962 1530.683716,599.860962 1544.002075,599.860962 
	C1544.002075,598.579895 1544.002075,597.605286 1544.001953,596.630676 
	C1544.001587,549.639160 1544.038086,502.647614 1543.953979,455.656281 
	C1543.943237,449.673828 1543.636963,443.650116 1542.887207,437.718903 
	C1540.946411,422.366821 1536.807739,407.741211 1527.533447,394.979523 
	C1515.902100,378.974548 1499.910156,370.286774 1480.648804,367.440155 
	C1454.873169,363.630829 1431.545776,368.733887 1412.645996,387.803802 
	C1407.054443,393.445740 1402.233765,399.851685 1397.002197,405.974823 
	C1397.002197,361.144043 1397.002197,316.322021 1397.002197,270.500000 
z"/>
<path fill="#343434" opacity="1.000000" stroke="none" 
	d="
M1014.688232,569.296265 
	C981.313293,543.502014 960.490540,509.994354 951.529053,469.388184 
	C940.196411,418.037750 946.948669,369.068878 975.720276,324.635620 
	C1001.230042,285.239716 1038.009277,260.487030 1083.982666,251.154968 
	C1146.807617,238.402283 1202.892822,252.834183 1249.211792,298.058960 
	C1277.386353,325.567871 1292.934937,360.043427 1298.081177,399.115540 
	C1303.029175,436.681946 1298.189941,472.781494 1281.956543,507.207581 
	C1266.072876,540.892273 1241.524048,566.381165 1208.913696,584.060120 
	C1175.348022,602.257019 1139.307495,608.098206 1101.599731,603.954346 
	C1069.627075,600.440613 1040.764648,588.756104 1014.688232,569.296265 
M1254.258911,442.656433 
	C1257.125122,412.266357 1253.031128,383.091675 1238.055786,356.134186 
	C1222.985596,329.006134 1201.209717,309.117554 1172.049561,297.900818 
	C1148.997070,289.033447 1125.133545,286.852478 1100.834106,291.021332 
	C1052.641724,299.289215 1019.806458,327.029938 1001.251587,371.679657 
	C991.132751,396.029449 989.733337,421.671936 992.858765,447.756683 
	C999.208313,500.749176 1038.064331,546.603210 1089.772949,558.857910 
	C1120.564087,566.155151 1151.067139,564.747681 1179.563599,550.889160 
	C1224.068970,529.244995 1248.292969,492.541718 1254.258911,442.656433 
z"/>
<path fill="#353535" opacity="1.000000" stroke="none" 
	d="
M1659.166992,449.593750 
	C1658.968872,481.866486 1658.809082,513.691223 1658.703613,545.516174 
	C1658.649902,561.679932 1658.701416,577.844055 1658.682983,594.007996 
	C1658.680908,595.810974 1658.531982,597.613831 1658.434448,599.786255 
	C1645.201782,599.786255 1632.305786,599.786255 1618.910645,599.786255 
	C1618.767700,597.835876 1618.503784,595.909729 1618.503174,593.983398 
	C1618.482178,521.995483 1618.483398,450.007538 1618.488770,378.019592 
	C1618.489258,371.381866 1618.510864,371.395844 1625.014648,371.404510 
	C1634.346436,371.416931 1643.685913,371.630432 1653.006470,371.307251 
	C1657.375366,371.155762 1658.975342,372.437286 1658.767700,376.878143 
	C1658.448975,383.696045 1658.614624,390.537231 1658.607422,397.368530 
	C1658.605835,398.816650 1658.745117,400.264862 1659.362305,402.303009 
	C1674.055786,376.484558 1696.684570,365.372070 1725.300171,366.560181 
	C1753.960205,367.750092 1775.461792,380.648254 1787.574341,408.448975 
	C1789.222656,406.376068 1790.774414,404.799500 1791.894897,402.960205 
	C1812.797729,368.645874 1855.090088,358.794983 1888.646240,371.847382 
	C1907.913940,379.342072 1919.035156,394.377563 1925.815308,413.101410 
	C1930.447998,425.895142 1932.114990,439.215179 1932.091797,452.819824 
	C1932.008667,501.640625 1932.059082,550.461670 1932.059082,599.726196 
	C1919.192627,599.726196 1906.316772,599.726196 1892.753418,599.726196 
	C1892.753418,598.243469 1892.753418,596.666016 1892.753418,595.088501 
	C1892.753784,551.762451 1892.883057,508.435730 1892.671387,465.110687 
	C1892.612061,452.976196 1891.957886,440.808197 1887.727783,429.162048 
	C1882.449585,414.629883 1872.364990,406.321045 1856.892456,404.595825 
	C1843.687378,403.123383 1830.871826,403.995758 1819.312378,411.261658 
	C1804.514038,420.563416 1797.459106,434.539642 1796.109375,451.605042 
	C1795.623901,457.741150 1795.571899,463.922638 1795.565186,470.083710 
	C1795.520874,511.243408 1795.542236,552.403198 1795.542114,593.562988 
	C1795.542114,595.527771 1795.542236,597.492554 1795.542236,599.812256 
	C1782.076782,599.812256 1769.164917,599.812256 1755.682861,599.812256 
	C1755.682861,598.028442 1755.682983,596.251160 1755.682983,594.473877 
	C1755.682861,551.147827 1755.907227,507.819733 1755.519043,464.497131 
	C1755.425903,454.113129 1754.436401,443.453705 1751.859009,433.435455 
	C1746.783813,413.707031 1736.218262,405.800140 1715.944580,404.204468 
	C1689.945679,402.158234 1670.573486,413.886017 1662.127441,437.032288 
	C1660.713623,440.906860 1660.172241,445.099915 1659.166992,449.593750 
z"/>
<path fill="#343434" opacity="1.000000" stroke="none" 
	d="
M1397.002197,271.000000 
	C1397.002197,316.322021 1397.002197,361.144043 1397.002197,405.974823 
	C1402.233765,399.851685 1407.054443,393.445740 1412.645996,387.803802 
	C1431.545776,368.733887 1454.873169,363.630829 1480.648804,367.440155 
	C1499.910156,370.286774 1515.902100,378.974548 1527.533447,394.979523 
	C1536.807739,407.741211 1540.946411,422.366821 1542.887207,437.718903 
	C1543.636963,443.650116 1543.943237,449.673828 1543.953979,455.656281 
	C1544.038086,502.647614 1544.001587,549.639160 1544.001953,596.630676 
	C1544.002075,597.605286 1544.002075,598.579895 1544.002075,599.860962 
	C1530.683716,599.860962 1517.650269,599.860962 1504.162231,599.860962 
	C1504.162231,597.869812 1504.164307,596.076599 1504.161987,594.283447 
	C1504.098755,547.626160 1504.137085,500.968323 1503.894897,454.311951 
	C1503.838989,443.546112 1501.318726,433.141205 1495.830200,423.732880 
	C1486.911011,408.443878 1472.312866,403.811584 1455.902954,403.724396 
	C1438.968628,403.634369 1423.776733,408.649445 1411.807251,421.389099 
	C1400.749268,433.158539 1397.089966,447.595276 1397.045654,463.155701 
	C1396.921509,506.814117 1397.002441,550.473145 1397.002319,594.131897 
	C1397.002319,595.940063 1397.002197,597.748230 1397.002197,599.861267 
	C1383.683350,599.861267 1370.650024,599.861267 1357.388672,599.861267 
	C1357.388672,470.600220 1357.388672,341.544006 1357.388672,212.242645 
	C1370.533447,212.242645 1383.460205,212.242645 1397.002197,212.242645 
	C1397.002197,231.649796 1397.002197,251.074905 1397.002197,271.000000 
z"/>
<path fill="#8B2C2C" opacity="1.000000" stroke="none" 
	d="
M309.315643,399.997192 
	C314.269104,385.577026 319.167755,371.137695 324.188904,356.741150 
	C331.709778,335.177460 339.303467,313.639099 346.912903,292.106476 
	C347.506958,290.425507 348.467133,288.873962 350.036133,287.125153 
	C357.865234,286.646637 364.917542,286.345490 371.964874,285.954681 
	C383.355988,285.323059 394.743805,284.632385 406.587830,283.961090 
	C418.314606,283.958435 429.586609,283.961334 441.330048,283.975647 
	C451.516937,284.326385 461.233429,284.641388 470.946503,285.038879 
	C472.041290,285.083679 473.808502,285.290039 474.092804,285.936493 
	C476.491089,291.389893 481.786682,290.820770 486.201263,292.081543 
	C482.930603,297.820892 479.825317,303.662415 476.355591,309.278809 
	C468.607758,321.820129 460.678101,334.249115 452.059967,347.934814 
	C459.581055,349.404388 465.797150,350.726013 472.052795,351.821899 
	C493.849579,355.640442 515.663269,359.362579 537.463989,363.159027 
	C547.470337,364.901581 550.351257,370.451965 543.992981,378.543884 
	C535.602844,389.221588 525.861450,398.837555 516.198242,408.664001 
	C513.217529,407.417389 510.739441,406.416656 508.043274,405.327881 
	C509.332764,401.851776 510.618835,398.797974 511.591248,395.647400 
	C512.563599,392.496826 512.234558,389.890320 507.672363,389.673340 
	C496.288452,389.249786 485.179718,389.136169 473.641602,389.015686 
	C470.116974,389.346161 467.021698,389.683502 463.465393,390.028809 
	C449.365601,390.033020 435.726776,390.029236 421.641968,390.016846 
	C417.439423,389.680084 413.682953,389.351959 409.465454,389.030884 
	C385.078491,389.019318 361.152527,388.980255 337.226715,389.024994 
	C335.509796,389.028229 333.794037,389.644165 331.690613,389.981873 
	C329.242096,391.118286 326.791077,391.857788 325.193726,393.452423 
	C320.739777,397.898895 315.621857,400.269745 309.315643,399.997192 
M422.490356,339.003693 
	C403.715942,339.003693 384.941528,339.003693 366.167114,339.003693 
	C366.169830,339.235840 366.172546,339.467987 366.175262,339.700134 
	C389.398773,339.700134 412.622253,339.700134 435.845764,339.700134 
	C435.848602,339.467987 435.851471,339.235870 435.854340,339.003723 
	C431.731049,339.003723 427.607727,339.003723 422.490356,339.003693 
M374.500336,366.016876 
	C382.889191,366.016876 391.278046,366.016876 399.666901,366.016876 
	C399.660095,365.770599 399.653259,365.524292 399.646423,365.278015 
	C384.809479,365.278015 369.972534,365.278015 355.135590,365.278015 
	C355.133545,365.524323 355.131500,365.770630 355.129456,366.016937 
	C361.253204,366.016937 367.376923,366.016937 374.500336,366.016876 
M411.385254,311.978333 
	C413.844696,311.978333 416.304138,311.978333 418.763580,311.978333 
	C418.746185,311.741791 418.728790,311.505219 418.711395,311.268677 
	C408.169098,311.268677 397.626831,311.268677 387.084534,311.268677 
	C387.083130,311.506226 387.081726,311.743744 387.080353,311.981293 
	C394.859314,311.981293 402.638306,311.981293 411.385254,311.978333 
z"/>
<path fill="#9D2929" opacity="1.000000" stroke="none" 
	d="
M463.926392,390.020844 
	C467.021698,389.683502 470.116974,389.346161 473.926453,389.308716 
	C485.742920,389.733490 496.845184,389.858368 507.947479,389.983246 
	C512.234558,389.890320 512.563599,392.496826 511.591248,395.647400 
	C510.618835,398.797974 509.332764,401.851776 508.043274,405.327881 
	C510.739441,406.416656 513.217529,407.417389 515.869873,408.751038 
	C503.893616,423.096771 491.752686,437.117950 479.588562,451.118988 
	C473.286377,458.372833 466.943298,465.591125 459.850647,472.910706 
	C458.257965,472.997467 457.391937,473.163239 456.617126,472.967621 
	C454.825287,472.515350 451.730469,472.126923 451.580994,471.283997 
	C451.224213,469.272186 451.944885,466.868347 452.833557,464.894287 
	C453.688995,462.994080 455.724457,461.599213 456.470184,459.682281 
	C457.314453,457.512085 457.959381,454.824097 457.374664,452.728516 
	C457.092712,451.718079 453.817169,451.418915 451.850037,451.047180 
	C450.577850,450.806732 449.220245,451.018066 447.442596,451.035736 
	C440.216827,451.028473 433.447418,450.909241 426.682892,451.041595 
	C423.475250,451.104340 420.277069,451.647583 416.616730,451.981262 
	C407.404419,450.658600 401.340546,454.247711 397.003052,461.826691 
	C393.533417,467.889313 388.164154,470.994934 380.908691,469.975159 
	C383.868347,463.214325 386.826691,456.452881 389.788239,449.692841 
	C391.225952,446.411163 392.669739,443.132111 394.342590,439.406342 
	C394.240814,438.836334 393.907288,438.711853 393.573730,438.587402 
	C371.422638,443.530609 349.265259,448.445801 327.123718,453.431610 
	C319.035889,455.252808 311.038910,457.518860 302.904022,459.079010 
	C294.119934,460.763611 289.199097,454.537231 292.234283,446.187073 
	C297.538696,431.593933 302.757751,416.969757 308.022675,402.362244 
	C308.243774,401.748840 308.566742,401.172150 309.078949,400.287781 
	C315.621857,400.269745 320.739777,397.898895 325.193726,393.452423 
	C326.791077,391.857788 329.242096,391.118286 332.150696,389.991913 
	C356.747192,389.993408 380.496521,390.013428 404.245605,389.947815 
	C406.140076,389.942596 408.032867,389.345703 409.926453,389.023804 
	C413.682953,389.351959 417.439423,389.680084 421.927032,390.305908 
	C435.852631,390.707733 449.047089,390.822998 462.241791,390.877533 
	C462.802124,390.879852 463.364807,390.319244 463.926392,390.020844 
M382.500610,410.994568 
	C376.436646,410.994568 370.372681,410.994568 364.308716,410.994568 
	C364.318115,411.237091 364.327545,411.479645 364.336945,411.722168 
	C381.514221,411.722168 398.691498,411.722168 415.868774,411.722168 
	C415.869537,411.479004 415.870270,411.235809 415.871033,410.992645 
	C405.080811,410.992645 394.290558,410.992645 382.500610,410.994568 
M332.524109,428.012024 
	C341.960571,428.012024 351.397034,428.012024 360.833527,428.012024 
	C360.827942,427.774933 360.822388,427.537872 360.816833,427.300781 
	C347.606110,427.300781 334.395416,427.300781 321.184692,427.300781 
	C321.182220,427.537048 321.179749,427.773315 321.177277,428.009583 
	C324.630554,428.009583 328.083801,428.009583 332.524109,428.012024 
M342.526062,409.985413 
	C339.071960,409.985413 335.617889,409.985413 332.163788,409.985413 
	C332.170685,410.220856 332.177551,410.456329 332.184448,410.691772 
	C340.058350,410.691772 347.932251,410.691772 355.806152,410.691772 
	C355.807251,410.456299 355.808319,410.220795 355.809387,409.985321 
	C351.709076,409.985321 347.608734,409.985321 342.526062,409.985413 
z"/>
<path fill="#753131" opacity="1.000000" stroke="none" 
	d="
M486.525970,291.991638 
	C481.786682,290.820770 476.491089,291.389893 474.092804,285.936493 
	C473.808502,285.290039 472.041290,285.083679 470.946503,285.038879 
	C461.233429,284.641388 451.516937,284.326385 441.050446,283.690674 
	C430.619598,283.266724 420.939911,283.090057 411.259796,283.057556 
	C409.551910,283.051819 407.842010,283.648285 406.133026,283.966644 
	C394.743805,284.632385 383.355988,285.323059 371.964874,285.954681 
	C364.917542,286.345490 357.865234,286.646637 350.356781,286.978027 
	C349.785553,285.938416 349.304321,284.779541 349.613525,283.897949 
	C357.908997,260.245544 366.274689,236.617767 374.655792,212.995453 
	C376.897614,206.676865 379.449921,204.845459 386.155945,204.842529 
	C431.815674,204.822678 477.475403,204.831482 523.135132,204.837051 
	C524.300781,204.837189 525.473572,204.836655 526.630981,204.954361 
	C534.496521,205.754440 537.768372,211.448669 533.955750,218.401764 
	C530.679382,224.376846 526.878418,230.071533 523.178772,235.805923 
	C511.101562,254.525299 498.964630,273.206146 486.525970,291.991638 
M428.500000,252.072311 
	C436.279663,252.072311 444.059357,252.072311 451.839020,252.072311 
	C451.837006,251.799225 451.834991,251.526138 451.832977,251.253052 
	C427.300995,251.253052 402.768982,251.253052 378.237000,251.253052 
	C378.235992,251.526276 378.234955,251.799500 378.233948,252.072723 
	C394.655945,252.072723 411.077972,252.072723 428.500000,252.072311 
M490.608368,251.996689 
	C491.070526,251.872726 491.532654,251.748779 493.104492,251.327179 
	C490.733551,251.165710 489.472534,251.009857 488.210999,251.005539 
	C481.163605,250.981415 474.116119,250.993927 467.068665,250.993927 
	C467.069855,251.331070 467.071014,251.668213 467.072174,252.005356 
	C474.645020,252.005356 482.217834,252.005356 490.608368,251.996689 
z"/>
<path fill="#D011AA" opacity="1.000000" stroke="none" 
	d="
M804.364502,493.062714 
	C804.646423,486.259583 804.874695,479.453705 805.220825,472.653839 
	C806.101135,455.359711 808.413635,438.003082 807.600525,420.792053 
	C806.559875,398.764954 804.386963,376.596710 800.286499,354.946808 
	C789.727478,299.196472 767.453186,248.054703 733.655640,202.515274 
	C719.625793,183.611267 703.158203,166.368073 686.677979,149.462723 
	C654.786072,116.748169 616.504517,93.234520 574.874817,74.912308 
	C571.546387,73.447388 568.418457,71.526978 565.049927,69.114639 
	C563.268433,64.273407 561.658386,60.126068 559.992310,56.001331 
	C558.699524,52.800648 557.336853,49.628181 556.005127,46.443195 
	C568.328064,51.379566 581.070984,55.483955 592.876892,61.444374 
	C611.273010,70.731987 629.662476,80.317429 646.875916,91.578629 
	C662.385315,101.725037 676.820984,113.705627 690.844238,125.896446 
	C744.322205,172.386429 782.243774,229.669327 804.933228,296.581360 
	C812.585022,319.146606 816.330627,343.037292 821.846191,366.325806 
	C827.853638,391.691345 827.185974,417.612518 826.526855,443.269257 
	C825.956482,465.467255 822.124878,487.581482 819.254639,509.620911 
	C813.971191,504.026947 809.167847,498.544830 804.364502,493.062714 
z"/>
<path fill="#7A14C1" opacity="1.000000" stroke="none" 
	d="
M47.460804,402.985443 
	C50.750435,357.063690 62.152866,313.274200 81.817345,271.624725 
	C101.516968,229.900772 128.071747,193.177963 161.277710,161.132751 
	C193.276627,130.252411 229.694656,105.987076 270.358063,88.294922 
	C301.334991,74.817245 333.625641,65.343559 367.131439,60.388142 
	C369.742432,60.001984 372.448212,60.256359 375.535187,60.689735 
	C372.636932,66.989639 369.313416,72.812828 365.989899,78.636017 
	C344.416870,84.692818 322.867523,90.835686 301.265259,96.786339 
	C268.496124,105.813072 240.016724,123.163643 212.674210,142.582458 
	C176.314850,168.405045 145.943268,199.989014 121.681297,237.534958 
	C96.281708,276.841400 79.118164,319.291931 70.930847,365.374481 
	C69.449989,373.709625 67.814751,382.017365 65.710579,390.709900 
	C64.486313,391.514343 63.790207,391.928802 63.120113,392.381775 
	C57.897507,395.912140 52.679932,399.449921 47.460804,402.985443 
z"/>
<path fill="#D111AA" opacity="1.000000" stroke="none" 
	d="
M512.123657,773.595337 
	C533.686646,765.338745 555.718079,758.113464 576.702454,748.582886 
	C607.861633,734.431030 634.868469,713.766357 659.908813,690.571106 
	C678.037659,673.777954 694.897766,655.770996 709.648315,635.933533 
	C726.635803,613.087769 739.257629,587.762207 749.680969,561.392090 
	C754.497498,549.206787 757.928650,536.475891 762.062134,524.016968 
	C762.892578,521.513855 764.058167,519.122009 765.577759,516.334961 
	C767.084106,515.470398 768.169067,515.068481 769.065247,514.409607 
	C774.629944,510.318634 780.152222,506.170044 785.688599,502.040558 
	C779.314209,527.141357 773.685120,552.417297 763.379089,576.393555 
	C744.359924,620.640015 717.941528,659.662598 684.131531,694.008179 
	C636.751282,742.138977 579.015808,771.885986 515.213684,791.227356 
	C508.242279,793.340637 500.956848,794.417969 493.448608,795.583862 
	C495.387146,792.127075 497.694183,789.062317 500.220459,785.884521 
	C500.711517,785.567017 500.903809,785.304443 501.008301,784.991821 
	C501.000000,785.000000 500.983765,785.016541 501.206482,784.899536 
	C501.625793,784.515564 501.822357,784.248535 502.009491,783.990723 
	C502.000092,784.000000 501.981720,784.018799 502.206726,783.903259 
	C502.627991,783.518494 502.824219,783.249329 503.010254,782.990112 
	C503.000000,783.000000 502.980316,783.020569 503.205963,782.905029 
	C503.628021,782.519592 503.824463,782.249695 504.010437,781.989929 
	C504.000000,782.000000 503.979858,782.020874 504.217072,781.901733 
	C504.682312,781.512878 504.910339,781.243225 505.318970,780.882935 
	C505.725250,780.628845 505.884735,780.415833 506.238647,779.993347 
	C507.003906,779.219116 507.508636,778.604858 508.006531,777.995361 
	C507.999695,778.000183 507.988190,778.012878 508.218933,777.911621 
	C508.635742,777.537842 508.821838,777.265381 509.003967,776.996460 
	C509.000000,777.000000 508.993011,777.008118 509.224792,776.911743 
	C509.639008,776.542847 509.821503,776.270203 510.002014,775.998779 
	C510.000000,776.000000 509.998047,776.004028 510.265137,775.905884 
	C511.062714,775.070312 511.593201,774.332825 512.123657,773.595337 
z"/>
<path fill="#D111AA" opacity="1.000000" stroke="none" 
	d="
M216.897827,685.054016 
	C238.830368,702.445740 264.065613,714.133240 288.697510,726.920715 
	C313.688721,739.894714 340.637848,746.350464 368.041656,750.707520 
	C392.869324,754.655090 418.057648,755.559998 443.209534,754.213562 
	C469.087646,752.828308 494.132416,746.800049 518.933350,739.644897 
	C524.357666,738.079956 529.806702,736.600708 535.958374,735.041870 
	C537.108032,734.999756 537.543701,734.997681 538.273071,735.295532 
	C547.349365,735.728638 556.131653,735.919067 564.914490,735.945801 
	C566.634094,735.951050 568.355591,735.322144 570.338623,735.002258 
	C571.032043,735.271790 571.463074,735.524780 571.894104,735.777771 
	C565.186340,738.979980 558.605591,742.487915 551.750427,745.335388 
	C503.161987,765.517517 452.602386,774.540039 400.006592,771.631897 
	C353.830109,769.078613 309.773315,758.004883 268.934479,736.259338 
	C246.079788,724.089966 222.966324,711.945312 203.410782,694.443176 
	C201.445633,692.684448 199.667282,690.716980 198.145767,688.454590 
	C204.625473,687.059753 210.761658,686.056885 216.897827,685.054016 
z"/>
<path fill="#AD2626" opacity="1.000000" stroke="none" 
	d="
M380.607666,470.127563 
	C388.164154,470.994934 393.533417,467.889313 397.003052,461.826691 
	C401.340546,454.247711 407.404419,450.658600 417.076782,451.974792 
	C424.761261,451.973328 431.529846,452.088745 438.293488,451.954712 
	C441.500824,451.891174 444.698761,451.351135 447.900940,451.026978 
	C449.220245,451.018066 450.577850,450.806732 451.850037,451.047180 
	C453.817169,451.418915 457.092712,451.718079 457.374664,452.728516 
	C457.959381,454.824097 457.314453,457.512085 456.470184,459.682281 
	C455.724457,461.599213 453.688995,462.994080 452.833557,464.894287 
	C451.944885,466.868347 451.224213,469.272186 451.580994,471.283997 
	C451.730469,472.126923 454.825287,472.515350 456.617126,472.967621 
	C457.391937,473.163239 458.257965,472.997467 459.521454,472.993225 
	C449.700500,484.998016 439.569580,497.118622 429.148926,508.984863 
	C415.425537,524.612061 401.476654,540.041321 387.615753,555.547729 
	C386.845947,556.408936 385.993988,557.196777 384.447021,558.045288 
	C374.898773,555.935303 374.064026,553.247070 379.507538,545.911621 
	C382.593292,541.753296 385.218811,537.253479 388.515106,532.196350 
	C379.214996,530.756897 370.843903,528.772034 364.016296,535.520996 
	C359.969116,539.521606 356.521454,544.185425 353.160706,548.809998 
	C348.493134,555.232727 344.980713,556.858887 338.109741,555.021790 
	C344.031952,542.628845 349.851196,530.185364 355.903442,517.856201 
	C362.888153,503.627533 370.061737,489.491364 377.200409,475.338776 
	C378.088440,473.578156 379.264252,471.962677 380.607666,470.127563 
z"/>
<path fill="#7815C2" opacity="1.000000" stroke="none" 
	d="
M599.707336,159.114838 
	C585.745361,151.403900 572.004822,143.254333 557.776672,136.070679 
	C525.272339,119.659660 490.265717,111.975143 454.370209,107.882225 
	C426.788086,104.737213 399.219910,104.738182 371.686249,108.883301 
	C349.340637,112.247383 328.097290,119.563377 306.695251,126.363388 
	C299.764313,128.565536 292.793854,130.643173 285.049866,132.900238 
	C278.741669,133.851501 273.464020,128.041565 268.766541,131.893463 
	C265.344299,130.751053 262.661407,129.855453 259.978516,128.959869 
	C281.298279,115.883553 304.440674,107.230736 328.557709,101.100800 
	C365.215363,91.783363 402.460236,87.220917 440.288940,89.183029 
	C479.690674,91.226723 517.803467,99.723236 553.718018,116.101059 
	C577.550842,126.969353 601.574463,137.918335 621.589722,156.023712 
	C614.243958,157.447983 606.975647,158.281418 599.707336,159.114838 
z"/>
<path fill="#7714C2" opacity="1.000000" stroke="none" 
	d="
M40.366730,516.011841 
	C43.368866,525.865417 46.356007,535.723511 49.375664,545.571716 
	C64.447243,594.725281 88.614571,638.938049 121.513016,678.415344 
	C125.339073,683.006531 129.019516,687.719116 132.886322,693.069336 
	C133.805191,695.744385 134.365723,697.867676 135.443512,699.684021 
	C143.132553,712.642639 150.990891,725.501343 158.597351,738.507690 
	C159.432556,739.935669 159.014618,742.096558 159.177856,743.917542 
	C102.013527,696.977844 61.490456,638.266541 36.179153,568.997742 
	C26.695862,543.045044 19.152096,516.499207 16.801973,488.761200 
	C16.690084,487.440613 16.372635,486.137421 16.536819,484.421631 
	C18.124767,484.981262 19.668440,485.722107 20.469875,486.948151 
	C23.980129,492.318115 27.107643,497.942108 30.700636,503.252991 
	C33.686131,507.665985 37.127357,511.770630 40.366730,516.011841 
z"/>
<path fill="#7F14C0" opacity="1.000000" stroke="none" 
	d="
M159.328140,744.211121 
	C159.014618,742.096558 159.432556,739.935669 158.597351,738.507690 
	C150.990891,725.501343 143.132553,712.642639 135.443512,699.684021 
	C134.365723,697.867676 133.805191,695.744385 133.000366,693.387329 
	C143.419830,702.774109 153.766861,712.620911 164.283722,722.282898 
	C189.848404,745.769531 219.476257,762.943176 250.030258,779.092529 
	C276.028534,792.834045 303.882416,800.540100 331.661835,808.894043 
	C332.292664,809.083740 332.905487,809.333496 333.794678,810.200439 
	C337.042358,817.219788 340.022064,823.593994 343.001801,829.968140 
	C329.592560,826.997986 315.910126,824.916016 302.825287,820.891113 
	C263.561493,808.813477 226.131973,792.490540 192.127441,769.130737 
	C180.902603,761.419678 170.342499,752.740906 159.328140,744.211121 
z"/>
<path fill="#BB2323" opacity="1.000000" stroke="none" 
	d="
M337.779114,555.134033 
	C344.980713,556.858887 348.493134,555.232727 353.160706,548.809998 
	C356.521454,544.185425 359.969116,539.521606 364.016296,535.520996 
	C370.843903,528.772034 379.214996,530.756897 388.515106,532.196350 
	C385.218811,537.253479 382.593292,541.753296 379.507538,545.911621 
	C374.064026,553.247070 374.898773,555.935303 384.133911,558.112793 
	C372.270111,572.578857 360.073944,587.079712 347.675476,601.405457 
	C337.226837,613.478394 326.724121,625.517090 315.819092,637.172119 
	C313.489288,639.662170 309.415070,641.456726 305.979767,641.770935 
	C299.778320,642.338074 295.861023,636.108887 298.718018,630.487244 
	C311.497894,605.340698 324.516205,580.315369 337.779114,555.134033 
z"/>
<path fill="#B612B1" opacity="1.000000" stroke="none" 
	d="
M676.940979,630.984741 
	C682.888672,621.590149 688.527039,611.981567 694.846741,602.844238 
	C709.195435,582.097900 718.088867,558.709778 726.467407,535.328369 
	C732.873901,517.450378 736.253174,498.486755 740.950195,479.998688 
	C741.317139,478.554352 741.405029,477.041351 741.712097,475.579071 
	C742.945923,469.703827 746.296814,466.599945 750.460144,467.426758 
	C755.112976,468.350708 758.957397,474.130615 757.895264,479.344543 
	C755.240173,492.378662 753.060608,505.570435 749.391357,518.325317 
	C739.766052,551.784973 727.619629,584.216370 707.453247,613.079346 
	C703.267456,619.070129 699.721375,625.507935 695.119263,631.892578 
	C688.552368,631.691833 682.746704,631.338318 676.940979,630.984741 
z"/>
<path fill="#9114BB" opacity="1.000000" stroke="none" 
	d="
M103.920906,628.032166 
	C97.108650,616.288452 89.564545,604.901917 83.624069,592.732666 
	C67.095642,558.873840 56.991478,522.957336 51.578224,485.193787 
	C53.060158,483.768555 54.277672,482.960083 55.422718,482.059418 
	C59.210690,479.080017 62.972515,476.067352 66.744385,473.067474 
	C68.066956,480.371765 69.011665,487.769379 70.787239,494.961823 
	C75.076347,512.335938 79.318665,529.742554 84.382156,546.899353 
	C90.984871,569.271362 102.394997,589.546265 113.428337,609.943542 
	C114.917473,612.696411 116.154503,615.585754 117.337021,618.887878 
	C112.750832,622.253357 108.335876,625.142761 103.920906,628.032166 
z"/>
<path fill="#C712AD" opacity="1.000000" stroke="none" 
	d="
M505.978088,780.153259 
	C505.884735,780.415833 505.725250,780.628845 505.058472,780.975342 
	C504.404846,781.445801 504.192352,781.733337 503.979858,782.020874 
	C503.979858,782.020874 504.000000,782.000000 503.775818,782.094055 
	C503.361176,782.465637 503.170746,782.743103 502.980347,783.020569 
	C502.980316,783.020569 503.000000,783.000000 502.777588,783.096191 
	C502.364014,783.467834 502.172882,783.743286 501.981720,784.018799 
	C501.981720,784.018799 502.000092,784.000000 501.779968,784.099548 
	C501.367798,784.471558 501.175781,784.744019 500.983765,785.016541 
	C500.983765,785.016541 501.000000,785.000000 500.783386,785.098877 
	C500.286896,785.399719 500.098389,785.666382 500.001221,785.997559 
	C497.694183,789.062317 495.387146,792.127075 493.039185,795.537415 
	C468.954163,800.493103 444.899139,804.517090 420.201233,802.727783 
	C408.277863,801.863892 396.189026,802.982788 384.316895,801.791321 
	C370.304901,800.385010 356.446228,797.450989 342.340027,794.531738 
	C346.453613,789.581482 350.748230,785.278687 355.042847,780.975830 
	C366.423309,782.063904 377.785645,783.427063 389.188232,784.181152 
	C411.068970,785.628296 433.029694,786.248352 454.794434,783.333191 
	C473.012177,780.893188 491.045258,777.074707 509.564880,774.208496 
	C509.979126,775.034912 509.988586,775.519470 509.998047,776.004028 
	C509.998047,776.004028 510.000000,776.000000 509.756195,776.076172 
	C509.339264,776.437561 509.166168,776.722839 508.993042,777.008118 
	C508.993011,777.008118 509.000000,777.000000 508.759766,777.079407 
	C508.342438,777.443481 508.165314,777.728149 507.988159,778.012878 
	C507.988190,778.012878 507.999695,778.000183 507.666138,778.024292 
	C506.881104,778.750061 506.429596,779.451660 505.978088,780.153259 
z"/>
<path fill="#9F13B8" opacity="1.000000" stroke="none" 
	d="
M504.007568,809.475952 
	C518.999451,804.712769 533.870728,799.518738 549.010437,795.283875 
	C573.860046,788.332947 596.149597,776.072327 618.251831,763.292419 
	C622.118225,761.056702 626.074341,758.976074 630.657227,757.028259 
	C634.269348,762.273193 637.213257,767.313721 640.157166,772.354309 
	C633.817810,776.591064 627.724854,781.266357 621.096985,784.989441 
	C590.691589,802.068848 558.260071,814.292175 524.926819,824.226440 
	C521.002197,825.396057 516.824829,825.717590 512.289673,826.035034 
	C509.212341,820.250549 506.609955,814.863220 504.007568,809.475952 
z"/>
<path fill="#8015C0" opacity="1.000000" stroke="none" 
	d="
M259.622131,128.993912 
	C262.661407,129.855453 265.344299,130.751053 268.766541,131.893463 
	C273.464020,128.041565 278.741669,133.851501 284.693298,133.037109 
	C283.666656,134.056839 282.302277,135.258530 280.728821,136.038239 
	C254.716095,148.928284 229.885681,163.971130 208.370651,183.352829 
	C191.395218,198.645050 176.642303,216.404602 160.908142,233.073853 
	C160.110992,233.918381 159.369202,234.815155 157.839203,235.842987 
	C151.037277,235.994751 144.997742,235.991119 138.958221,235.987488 
	C150.108795,222.170761 160.599884,207.752090 172.547363,194.662766 
	C197.340363,167.500214 227.063019,146.554306 259.622131,128.993912 
z"/>
<path fill="#AD12B4" opacity="1.000000" stroke="none" 
	d="
M268.072510,770.661438 
	C266.549011,770.171509 264.949768,769.842773 263.513367,769.167664 
	C240.723938,758.456665 219.473663,745.373596 198.848770,730.798157 
	C179.727676,717.285461 163.455673,701.088989 147.100830,684.013306 
	C150.713058,679.218445 154.375732,675.098267 158.038406,670.978088 
	C164.502563,677.145203 170.910812,683.372131 177.440445,689.469055 
	C207.429230,717.470398 241.144440,739.848083 278.691101,757.024902 
	C275.144440,761.982666 271.608459,766.322021 268.072510,770.661438 
z"/>
<path fill="#B212B2" opacity="1.000000" stroke="none" 
	d="
M764.167542,338.927979 
	C761.808960,332.425018 759.163574,326.009918 757.139343,319.404480 
	C745.897339,282.720520 726.113037,250.530975 704.944336,219.010086 
	C702.895325,215.958908 701.284241,211.551941 701.838867,208.161911 
	C702.255615,205.614594 706.253235,202.326035 709.060181,201.874207 
	C711.807129,201.432053 716.188904,203.330933 717.902588,205.646072 
	C725.108521,215.381134 732.202820,225.302933 738.208191,235.802597 
	C754.632019,264.517853 770.134766,293.712616 777.541565,326.829468 
	C772.872498,331.233063 768.520020,335.080536 764.167542,338.927979 
z"/>
<path fill="#8B14BD" opacity="1.000000" stroke="none" 
	d="
M102.230148,205.126175 
	C101.698067,206.498642 101.345314,207.977020 100.606697,209.227478 
	C91.384087,224.841141 81.845634,240.275864 72.971436,256.083893 
	C69.505516,262.257874 67.454956,269.234009 64.839363,275.876160 
	C58.870880,291.032745 52.951553,306.208710 46.476624,321.601624 
	C44.301071,319.566040 42.827366,317.158020 40.982330,315.079681 
	C38.201889,311.947601 35.161976,309.045868 32.232346,306.046234 
	C34.765755,297.846954 36.922276,289.508087 39.898422,281.472778 
	C52.182636,248.306671 71.355942,218.973602 91.672211,190.359512 
	C95.440567,195.460358 98.835358,200.293259 102.230148,205.126175 
z"/>
<path fill="#B212B2" opacity="1.000000" stroke="none" 
	d="
M390.000214,41.637901 
	C384.086212,43.062283 378.231293,44.838970 372.246735,45.842686 
	C356.501740,48.483406 340.674347,50.635731 324.938263,53.324974 
	C320.577240,54.070263 316.412170,55.986935 312.172028,57.410343 
	C299.411072,61.694160 286.711884,66.171974 273.880554,70.232605 
	C266.111877,72.691093 260.231293,68.744781 259.975891,61.488873 
	C259.785187,56.070724 263.093781,53.114342 267.659851,51.705421 
	C288.106873,45.396210 308.462616,38.694489 329.160767,33.327915 
	C344.246643,29.416466 359.808441,27.329355 375.176300,24.528830 
	C377.436646,24.116922 379.797882,24.258696 382.609253,24.582277 
	C385.404114,30.559475 387.702148,36.098690 390.000214,41.637901 
z"/>
<path fill="#9114BB" opacity="1.000000" stroke="none" 
	d="
M464.972473,61.073441 
	C475.151550,62.394127 485.468872,63.055347 495.484497,65.155540 
	C529.509949,72.290398 561.178101,86.251854 592.976074,99.767067 
	C593.271729,99.892715 593.504517,100.166237 593.554199,100.920197 
	C590.171692,105.745392 587.001648,110.021111 583.831604,114.296829 
	C582.110229,113.921165 580.285156,113.795547 578.683472,113.131332 
	C561.843933,106.147980 545.283325,98.398727 528.142578,92.267494 
	C516.353699,88.050629 503.836426,85.749931 491.529114,83.137405 
	C480.023193,80.695015 468.364929,78.970383 456.444305,76.419174 
	C459.067444,70.963486 462.019958,66.018463 464.972473,61.073441 
z"/>
<path fill="#8714BE" opacity="1.000000" stroke="none" 
	d="
M599.903931,159.396881 
	C606.975647,158.281418 614.243958,157.447983 621.754089,156.314606 
	C654.704895,178.792358 681.649170,207.174500 703.619385,240.325943 
	C707.172546,245.687286 709.976074,251.545349 712.773315,257.708740 
	C707.332703,259.160370 702.244934,260.077118 697.157227,260.993896 
	C684.764648,244.396194 673.807068,226.427689 659.604187,211.559326 
	C643.086304,194.267593 623.732239,179.683762 605.586853,163.950317 
	C603.838196,162.434128 601.933044,161.098404 599.903931,159.396881 
z"/>
<path fill="#9F13B8" opacity="1.000000" stroke="none" 
	d="
M127.966461,145.907089 
	C136.018585,138.497055 143.717697,130.651917 152.198990,123.770874 
	C168.078964,110.887131 184.387924,98.530571 200.585144,86.041222 
	C202.803497,84.330704 205.298065,82.882729 207.850479,81.721382 
	C212.923508,79.413162 217.950211,80.726555 220.746964,84.778648 
	C223.133026,88.235718 222.374695,94.010231 218.705139,97.535309 
	C216.565109,99.591042 214.071762,101.339622 211.548874,102.926750 
	C186.064240,118.958977 164.003906,139.196106 141.942078,159.437988 
	C140.602753,160.666824 139.114182,161.733002 137.081863,162.747803 
	C133.634598,157.049515 130.800522,151.478302 127.966461,145.907089 
z"/>
<path fill="#C212AE" opacity="1.000000" stroke="none" 
	d="
M216.883102,684.713562 
	C210.761658,686.056885 204.625473,687.059753 198.044067,688.119873 
	C186.317398,677.712646 174.339340,667.894043 163.907608,656.641907 
	C145.396408,636.675049 132.287796,612.813904 118.726913,589.311768 
	C123.996315,587.977417 128.819214,586.991089 133.642120,586.004761 
	C139.455414,594.680603 145.435562,603.250244 151.043228,612.057007 
	C159.637238,625.553833 169.490494,637.911072 181.170135,648.932495 
	C193.361435,660.436707 204.992432,672.534668 216.883102,684.713562 
z"/>
<path fill="#8C15BD" opacity="1.000000" stroke="none" 
	d="
M343.293884,830.216919 
	C340.022064,823.593994 337.042358,817.219788 334.009247,810.495544 
	C344.006866,811.413879 354.185211,812.057007 364.083862,814.073364 
	C389.110992,819.171082 414.319122,819.093872 439.623138,817.979065 
	C441.777924,817.884155 443.943390,818.030762 446.566833,818.520081 
	C449.017029,824.555420 451.004272,830.135864 452.991486,835.716248 
	C439.411194,836.435303 425.787231,838.192078 412.261169,837.622864 
	C393.404480,836.829163 374.615967,834.346741 355.810181,832.468018 
	C351.709686,832.058411 347.659393,831.146423 343.293884,830.216919 
z"/>
<path fill="#7D15C1" opacity="1.000000" stroke="none" 
	d="
M40.524460,515.640076 
	C37.127357,511.770630 33.686131,507.665985 30.700636,503.252991 
	C27.107643,497.942108 23.980129,492.318115 20.469875,486.948151 
	C19.668440,485.722107 18.124767,484.981262 16.565754,484.010254 
	C11.426433,469.296967 13.038996,454.016357 12.492252,438.981049 
	C11.780292,419.402313 10.763594,399.726471 15.816282,380.283508 
	C19.644360,385.311127 22.627272,390.554260 26.142778,395.411957 
	C27.357286,397.090149 29.896456,397.809692 31.830532,398.967133 
	C31.888063,401.118683 32.110313,403.280365 31.978615,405.420288 
	C29.699738,442.449188 33.431622,478.997101 40.524460,515.640076 
z"/>
<path fill="#9114BB" opacity="1.000000" stroke="none" 
	d="
M138.657715,236.145370 
	C144.997742,235.991119 151.037277,235.994751 157.546143,236.001907 
	C151.952225,245.725418 146.120621,255.599503 139.778564,265.134033 
	C125.592491,286.461151 118.068382,310.593292 109.970383,334.507965 
	C108.160408,339.853119 106.153397,345.131592 103.579964,350.718628 
	C97.752350,351.326904 92.581871,351.657288 87.411385,351.987671 
	C92.414680,336.708313 97.680458,321.508759 102.356407,306.129852 
	C108.528656,285.829712 120.791153,268.656006 130.402771,250.124069 
	C132.847717,245.410019 135.694855,240.904572 138.657715,236.145370 
z"/>
<path fill="#9F13B8" opacity="1.000000" stroke="none" 
	d="
M583.850586,114.636696 
	C587.001648,110.021111 590.171692,105.745392 593.591675,101.268402 
	C608.317871,109.554245 623.465698,117.097511 637.085083,126.788704 
	C651.261230,136.876053 664.032349,148.955231 677.263733,160.342499 
	C681.124451,163.665131 681.340759,168.259460 678.546692,171.963379 
	C675.600647,175.868622 671.377686,177.156616 667.172607,174.364456 
	C661.662354,170.705688 656.288025,166.678192 651.491760,162.137009 
	C632.118469,143.794281 609.566345,130.109207 586.577698,117.011742 
	C585.604431,116.457230 584.769165,115.660461 583.850586,114.636696 
z"/>
<path fill="#C512AD" opacity="1.000000" stroke="none" 
	d="
M555.660828,46.271317 
	C557.336853,49.628181 558.699524,52.800648 559.992310,56.001331 
	C561.658386,60.126068 563.268433,64.273407 564.915894,68.805428 
	C535.688538,61.680248 506.444641,54.173355 477.216339,46.606289 
	C475.635376,46.196972 474.184906,45.283405 472.242950,44.110245 
	C468.878235,37.561054 465.944305,31.506186 463.010376,25.451317 
	C494.937195,27.156809 525.211304,36.250626 555.660828,46.271317 
z"/>
<path fill="#B512B1" opacity="1.000000" stroke="none" 
	d="
M760.081970,654.037354 
	C753.190125,664.016602 747.061707,674.647400 739.230164,683.824707 
	C727.044922,698.103638 713.702026,711.394531 700.362305,724.871948 
	C696.948486,719.205566 694.022156,713.771362 691.095886,708.337219 
	C697.834534,700.817383 704.896423,693.559204 711.242004,685.721130 
	C723.127930,671.039917 734.599060,656.022766 746.879272,641.202454 
	C751.704529,645.518799 755.893250,649.778076 760.081970,654.037354 
z"/>
<path fill="#C914AD" opacity="1.000000" stroke="none" 
	d="
M785.802490,501.708313 
	C780.152222,506.170044 774.629944,510.318634 769.065247,514.409607 
	C768.169067,515.068481 767.084106,515.470398 765.746460,516.002197 
	C767.652283,501.791718 770.485657,487.631409 771.978394,473.331207 
	C773.473022,459.013245 773.608826,444.554443 774.387695,430.159943 
	C774.539062,427.361572 774.908875,424.575073 775.506653,421.186707 
	C781.182495,416.071533 786.529480,411.552734 791.876465,407.033936 
	C792.186157,419.099243 793.483032,431.238861 792.581360,443.212952 
	C791.117188,462.657684 788.212830,481.993988 785.802490,501.708313 
z"/>
<path fill="#9F13B8" opacity="1.000000" stroke="none" 
	d="
M741.778015,320.999146 
	C744.433105,329.688599 747.012512,338.402008 749.757812,347.062897 
	C757.100159,370.226898 759.183044,394.206635 760.928345,418.243195 
	C761.012634,419.403534 761.014404,420.569946 761.049988,421.733704 
	C761.170898,425.699951 760.369751,429.153229 755.776428,430.056274 
	C750.652283,431.063690 745.910950,428.585205 744.972778,423.684692 
	C743.948486,418.334351 743.582581,412.812469 743.418457,407.350647 
	C742.562256,378.850708 735.213806,351.651184 727.139221,324.583130 
	C726.764221,323.325989 726.566467,322.015991 726.692810,320.354431 
	C731.992310,320.318542 736.885193,320.658844 741.778015,320.999146 
z"/>
<path fill="#8515BF" opacity="1.000000" stroke="none" 
	d="
M464.720978,60.787834 
	C462.019958,66.018463 459.067444,70.963486 456.061829,76.235138 
	C433.409363,76.688759 410.807861,76.677361 388.211884,77.023987 
	C381.091980,77.133202 373.986816,78.202087 366.432404,78.733894 
	C369.313416,72.812828 372.636932,66.989639 375.971252,60.821060 
	C404.983124,55.414326 434.011444,55.794163 463.057129,60.052990 
	C463.539520,60.123714 463.999207,60.349041 464.720978,60.787834 
z"/>
<path fill="#BD11AF" opacity="1.000000" stroke="none" 
	d="
M760.407898,653.939453 
	C755.893250,649.778076 751.704529,645.518799 747.199707,641.100403 
	C756.104736,623.137268 765.440857,605.391357 774.488220,587.499390 
	C777.923218,580.706299 780.693542,573.577148 784.296631,566.343506 
	C789.217651,571.390198 793.608826,576.694641 798.000000,581.999023 
	C794.678162,589.931885 791.955139,598.185730 787.911072,605.731506 
	C779.212646,621.961487 769.834045,637.826843 760.407898,653.939453 
z"/>
<path fill="#8414BF" opacity="1.000000" stroke="none" 
	d="
M32.124977,398.700500 
	C29.896456,397.809692 27.357286,397.090149 26.142778,395.411957 
	C22.627272,390.554260 19.644360,385.311127 16.126938,380.058380 
	C17.340357,354.602814 23.363958,330.272003 31.913212,306.230835 
	C35.161976,309.045868 38.201889,311.947601 40.982330,315.079681 
	C42.827366,317.158020 44.301071,319.566040 46.246330,321.904968 
	C44.369190,333.398834 42.127029,344.803162 40.019466,356.232330 
	C37.427441,370.288696 34.947701,384.365723 32.124977,398.700500 
z"/>
<path fill="#BD11AF" opacity="1.000000" stroke="none" 
	d="
M462.635559,25.259995 
	C465.944305,31.506186 468.878235,37.561054 471.902649,43.905045 
	C464.923889,43.803131 457.857727,43.156063 450.784821,43.071579 
	C433.221680,42.861794 415.655273,42.939392 398.090759,42.817345 
	C395.640137,42.800316 393.192810,42.308571 390.372070,41.837242 
	C387.702148,36.098690 385.404114,30.559475 383.050110,24.685051 
	C409.426300,23.492201 435.874695,20.843740 462.635559,25.259995 
z"/>
<path fill="#AB12B4" opacity="1.000000" stroke="none" 
	d="
M690.761719,708.279053 
	C694.022156,713.771362 696.948486,719.205566 700.034912,724.983154 
	C695.490051,729.675049 691.003906,734.293518 686.037170,738.318970 
	C673.429382,748.537537 660.644165,758.539124 647.830750,768.500122 
	C645.779907,770.094482 643.217468,771.030884 640.524353,772.312866 
	C637.213257,767.313721 634.269348,762.273193 631.015137,757.032837 
	C640.346252,749.538086 650.210938,742.516724 659.569397,734.875427 
	C670.093689,726.282410 680.161255,717.130005 690.761719,708.279053 
z"/>
<path fill="#8414BF" opacity="1.000000" stroke="none" 
	d="
M66.860352,472.628723 
	C62.972515,476.067352 59.210690,479.080017 55.422718,482.059418 
	C54.277672,482.960083 53.060158,483.768555 51.599102,484.779053 
	C49.946510,474.575714 47.780766,464.243408 47.375393,453.842438 
	C46.727623,437.222168 47.249069,420.556305 47.368500,403.447571 
	C52.679932,399.449921 57.897507,395.912140 63.120113,392.381775 
	C63.790207,391.928802 64.486313,391.514343 65.508301,391.039612 
	C65.698700,406.131531 65.307335,421.268677 65.481422,436.399353 
	C65.618736,448.333740 66.452110,460.260071 66.860352,472.628723 
z"/>
<path fill="#C512AD" opacity="1.000000" stroke="none" 
	d="
M798.261841,581.763062 
	C793.608826,576.694641 789.217651,571.390198 784.492798,566.043335 
	C790.445740,542.435303 796.730896,518.869385 803.026489,495.306152 
	C803.195190,494.674805 803.476074,494.073395 804.034546,493.260376 
	C809.167847,498.544830 813.971191,504.026947 818.924072,509.821594 
	C815.716003,524.112122 812.754211,538.201416 808.868164,552.031006 
	C806.055298,562.041504 802.016052,571.707458 798.261841,581.763062 
z"/>
<path fill="#CD11AB" opacity="1.000000" stroke="none" 
	d="
M572.253662,735.802124 
	C571.463074,735.524780 571.032043,735.271790 569.861328,735.008728 
	C558.740845,734.997620 548.360107,734.996582 537.979370,734.995605 
	C537.543701,734.997681 537.108032,734.999756 536.345642,735.004456 
	C540.382812,732.702942 544.617920,730.102112 549.131836,728.143799 
	C574.393372,717.184570 597.838928,703.121765 620.924316,687.011047 
	C628.125916,687.938293 634.535034,688.905457 640.944092,689.872620 
	C619.687561,707.451355 597.630066,723.839050 572.253662,735.802124 
z"/>
<path fill="#BD12AF" opacity="1.000000" stroke="none" 
	d="
M791.968933,406.583008 
	C786.529480,411.552734 781.182495,416.071533 775.575867,420.765167 
	C773.952820,394.208130 769.761719,367.879303 764.059021,341.763672 
	C763.922852,341.140076 764.106689,340.446594 764.154419,339.356873 
	C768.520020,335.080536 772.872498,331.233063 777.499634,327.213684 
	C786.890564,352.618683 789.940918,379.291382 791.968933,406.583008 
z"/>
<path fill="#BD12AF" opacity="1.000000" stroke="none" 
	d="
M268.373383,770.869141 
	C271.608459,766.322021 275.144440,761.982666 278.829102,757.348145 
	C292.829346,761.516724 306.634521,766.131653 320.548706,770.390381 
	C329.718872,773.197083 339.053955,775.462463 348.297089,778.035278 
	C350.505768,778.650024 352.642181,779.524414 354.927338,780.627563 
	C350.748230,785.278687 346.453613,789.581482 342.138794,794.192505 
	C322.319000,790.524963 302.773895,785.672241 284.136414,777.688171 
	C278.983887,775.480896 273.828400,773.280457 268.373383,770.869141 
z"/>
<path fill="#C514AE" opacity="1.000000" stroke="none" 
	d="
M641.265137,689.769043 
	C634.535034,688.905457 628.125916,687.938293 621.257263,686.947083 
	C639.325500,668.392822 657.853333,649.862610 676.661072,631.158569 
	C682.746704,631.338318 688.552368,631.691833 694.849731,632.083740 
	C686.508179,642.863281 678.146729,654.042419 668.701172,664.214783 
	C660.286133,673.277161 650.671387,681.225464 641.265137,689.769043 
z"/>
<path fill="#9E13B7" opacity="1.000000" stroke="none" 
	d="
M157.887802,670.671631 
	C154.375732,675.098267 150.713058,679.218445 147.015503,683.688110 
	C131.408325,666.958252 115.992798,649.755066 104.179214,629.715942 
	C104.028015,629.459412 104.099091,629.071899 103.993652,628.388855 
	C108.335876,625.142761 112.750832,622.253357 117.458939,619.223389 
	C127.642471,631.513062 137.576706,643.908752 147.400116,656.391724 
	C150.981537,660.942688 154.299194,665.701355 157.887802,670.671631 
z"/>
<path fill="#9414BA" opacity="1.000000" stroke="none" 
	d="
M453.442505,835.817566 
	C451.004272,830.135864 449.017029,824.555420 447.033905,818.592041 
	C453.819580,816.997437 460.579437,815.643433 467.387482,814.605713 
	C479.305389,812.789185 491.252899,811.166870 503.597778,809.469604 
	C506.609955,814.863220 509.212341,820.250549 511.901062,825.930176 
	C497.584930,829.143372 483.212952,832.229309 468.763062,834.892761 
	C463.908447,835.787659 458.855713,835.607666 453.442505,835.817566 
z"/>
<path fill="#9414BA" opacity="1.000000" stroke="none" 
	d="
M741.959961,320.632202 
	C736.885193,320.658844 731.992310,320.318542 726.678345,319.966034 
	C720.450195,307.666260 714.783752,295.309540 708.783447,283.117157 
	C705.200378,275.836578 701.093750,268.813660 697.189819,261.334412 
	C702.244934,260.077118 707.332703,259.160370 712.803040,258.080322 
	C718.151306,266.307556 723.898193,274.344727 727.892273,283.174744 
	C733.341675,295.221832 737.455505,307.873047 741.959961,320.632202 
z"/>
<path fill="#9414BA" opacity="1.000000" stroke="none" 
	d="
M127.655762,146.033203 
	C130.800522,151.478302 133.634598,157.049515 136.749680,162.816895 
	C129.245834,172.927475 121.525780,182.893799 113.645920,192.732147 
	C110.235870,196.989731 106.496109,200.983231 102.568130,205.111420 
	C98.835358,200.293259 95.440567,195.460358 92.005630,190.268738 
	C96.122536,183.592361 99.762398,176.846222 104.558052,171.057602 
	C111.726814,162.404495 119.708923,154.425232 127.655762,146.033203 
z"/>
<path fill="#9F13B8" opacity="1.000000" stroke="none" 
	d="
M87.272385,352.367615 
	C92.581871,351.657288 97.752350,351.326904 103.339172,350.997375 
	C101.178215,366.788055 98.601860,382.578033 96.022560,398.367523 
	C95.650070,400.647736 95.263321,402.925629 94.316658,405.596161 
	C88.929688,406.338989 84.109215,406.690247 79.288750,407.041504 
	C79.852615,400.660034 80.084198,394.227661 81.052193,387.908112 
	C82.852722,376.153198 85.082375,364.464050 87.272385,352.367615 
z"/>
<path fill="#B512B1" opacity="1.000000" stroke="none" 
	d="
M133.609955,585.652588 
	C128.819214,586.991089 123.996315,587.977417 118.801567,588.978271 
	C113.952553,579.643799 109.308205,570.370239 105.055435,560.920349 
	C102.090515,554.332153 99.662399,547.502441 97.490982,540.378906 
	C102.921341,539.671082 107.855194,539.364929 112.789055,539.058716 
	C119.718636,554.472595 126.648216,569.886475 133.609955,585.652588 
z"/>
<path fill="#B015B4" opacity="1.000000" stroke="none" 
	d="
M112.805893,538.653687 
	C107.855194,539.364929 102.921341,539.671082 97.577217,539.988892 
	C93.141777,524.597717 89.116600,509.194885 85.582901,493.387421 
	C90.957291,492.988159 95.840210,492.993561 100.723122,492.998932 
	C104.756317,508.082184 108.789520,523.165405 112.805893,538.653687 
z"/>
<path fill="#A41AB9" opacity="1.000000" stroke="none" 
	d="
M79.056953,407.383850 
	C84.109215,406.690247 88.929688,406.338989 94.146622,405.981384 
	C94.498055,420.700562 94.453011,435.426086 93.833084,450.581543 
	C88.525398,451.667511 83.792595,452.323608 79.059792,452.979675 
	C78.832268,448.688293 78.404518,444.396393 78.416580,440.105682 
	C78.446945,429.312256 78.675850,418.519348 79.056953,407.383850 
z"/>
<path fill="#AB12B4" opacity="1.000000" stroke="none" 
	d="
M78.906479,453.421936 
	C83.792595,452.323608 88.525398,451.667511 93.605972,450.996216 
	C95.599083,459.823273 97.323509,468.651794 98.858376,477.513184 
	C99.700409,482.374542 100.222733,487.291229 100.806168,492.590942 
	C95.840210,492.993561 90.957291,492.988159 85.619545,492.973602 
	C83.027527,479.931030 80.890350,466.897614 78.906479,453.421936 
z"/>
<path fill="#D845BE" opacity="1.000000" stroke="none" 
	d="
M510.265137,775.905884 
	C509.988586,775.519470 509.979126,775.034912 509.977264,774.186035 
	C510.516785,773.652039 511.048645,773.482300 511.852081,773.453979 
	C511.593201,774.332825 511.062714,775.070312 510.265137,775.905884 
z"/>
<path fill="#FFFFFF" opacity="1.000000" stroke="none" 
	d="
M1254.200073,443.103577 
	C1248.292969,492.541718 1224.068970,529.244995 1179.563599,550.889160 
	C1151.067139,564.747681 1120.564087,566.155151 1089.772949,558.857910 
	C1038.064331,546.603210 999.208313,500.749176 992.858765,447.756683 
	C989.733337,421.671936 991.132751,396.029449 1001.251587,371.679657 
	C1019.806458,327.029938 1052.641724,299.289215 1100.834106,291.021332 
	C1125.133545,286.852478 1148.997070,289.033447 1172.049561,297.900818 
	C1201.209717,309.117554 1222.985596,329.006134 1238.055786,356.134186 
	C1253.031128,383.091675 1257.125122,412.266357 1254.200073,443.103577 
z"/>
<path fill="#AD5555" opacity="1.000000" stroke="none" 
	d="
M409.465454,389.030884 
	C408.032867,389.345703 406.140076,389.942596 404.245605,389.947815 
	C380.496521,390.013428 356.747192,389.993408 332.537842,389.985291 
	C333.794037,389.644165 335.509796,389.028229 337.226715,389.024994 
	C361.152527,388.980255 385.078491,389.019318 409.465454,389.030884 
z"/>
<path fill="#9F5454" opacity="1.000000" stroke="none" 
	d="
M422.987396,339.003723 
	C427.607727,339.003723 431.731049,339.003723 435.854340,339.003723 
	C435.851471,339.235870 435.848602,339.467987 435.845764,339.700134 
	C412.622253,339.700134 389.398773,339.700134 366.175262,339.700134 
	C366.172546,339.467987 366.169830,339.235840 366.167114,339.003693 
	C384.941528,339.003693 403.715942,339.003693 422.987396,339.003723 
z"/>
<path fill="#AD5555" opacity="1.000000" stroke="none" 
	d="
M374.000488,366.016907 
	C367.376923,366.016937 361.253204,366.016937 355.129456,366.016937 
	C355.131500,365.770630 355.133545,365.524323 355.135590,365.278015 
	C369.972534,365.278015 384.809479,365.278015 399.646423,365.278015 
	C399.653259,365.524292 399.660095,365.770599 399.666901,366.016876 
	C391.278046,366.016876 382.889191,366.016876 374.000488,366.016907 
z"/>
<path fill="#AD5555" opacity="1.000000" stroke="none" 
	d="
M463.465393,390.028809 
	C463.364807,390.319244 462.802124,390.879852 462.241791,390.877533 
	C449.047089,390.822998 435.852631,390.707733 422.373047,390.314514 
	C435.726776,390.029236 449.365601,390.033020 463.465393,390.028809 
z"/>
<path fill="#9F5454" opacity="1.000000" stroke="none" 
	d="
M406.587830,283.961090 
	C407.842010,283.648285 409.551910,283.051819 411.259796,283.057556 
	C420.939911,283.090057 430.619598,283.266724 440.579010,283.679260 
	C429.586609,283.961334 418.314606,283.958435 406.587830,283.961090 
z"/>
<path fill="#AD5555" opacity="1.000000" stroke="none" 
	d="
M507.672363,389.673340 
	C496.845184,389.858368 485.742920,389.733490 474.355774,389.315613 
	C485.179718,389.136169 496.288452,389.249786 507.672363,389.673340 
z"/>
<path fill="#9F5454" opacity="1.000000" stroke="none" 
	d="
M410.901276,311.979797 
	C402.638306,311.981293 394.859314,311.981293 387.080353,311.981293 
	C387.081726,311.743744 387.083130,311.506226 387.084534,311.268677 
	C397.626831,311.268677 408.169098,311.268677 418.711395,311.268677 
	C418.728790,311.505219 418.746185,311.741791 418.763580,311.978333 
	C416.304138,311.978333 413.844696,311.978333 410.901276,311.979797 
z"/>
<path fill="#AD5555" opacity="1.000000" stroke="none" 
	d="
M383.000488,410.993591 
	C394.290558,410.992645 405.080811,410.992645 415.871033,410.992645 
	C415.870270,411.235809 415.869537,411.479004 415.868774,411.722168 
	C398.691498,411.722168 381.514221,411.722168 364.336945,411.722168 
	C364.327545,411.479645 364.318115,411.237091 364.308716,410.994568 
	C370.372681,410.994568 376.436646,410.994568 383.000488,410.993591 
z"/>
<path fill="#AD5555" opacity="1.000000" stroke="none" 
	d="
M332.030579,428.010803 
	C328.083801,428.009583 324.630554,428.009583 321.177277,428.009583 
	C321.179749,427.773315 321.182220,427.537048 321.184692,427.300781 
	C334.395416,427.300781 347.606110,427.300781 360.816833,427.300781 
	C360.822388,427.537872 360.827942,427.774933 360.833527,428.012024 
	C351.397034,428.012024 341.960571,428.012024 332.030579,428.010803 
z"/>
<path fill="#AD5555" opacity="1.000000" stroke="none" 
	d="
M447.442596,451.035736 
	C444.698761,451.351135 441.500824,451.891174 438.293488,451.954712 
	C431.529846,452.088745 424.761261,451.973328 417.534668,451.966736 
	C420.277069,451.647583 423.475250,451.104340 426.682892,451.041595 
	C433.447418,450.909241 440.216827,451.028473 447.442596,451.035736 
z"/>
<path fill="#AD5555" opacity="1.000000" stroke="none" 
	d="
M343.017242,409.985352 
	C347.608734,409.985321 351.709076,409.985321 355.809387,409.985321 
	C355.808319,410.220795 355.807251,410.456299 355.806152,410.691772 
	C347.932251,410.691772 340.058350,410.691772 332.184448,410.691772 
	C332.177551,410.456329 332.170685,410.220856 332.163788,409.985413 
	C335.617889,409.985413 339.071960,409.985413 343.017242,409.985352 
z"/>
<path fill="#FFFFFF" opacity="1.000000" stroke="none" 
	d="
M393.706787,438.717163 
	C393.907288,438.711853 394.240814,438.836334 394.341919,439.031708 
	C394.109467,439.102600 393.839813,438.846893 393.706787,438.717163 
z"/>
<path fill="#9C6767" opacity="1.000000" stroke="none" 
	d="
M428.000000,252.072510 
	C411.077972,252.072723 394.655945,252.072723 378.233948,252.072723 
	C378.234955,251.799500 378.235992,251.526276 378.237000,251.253052 
	C402.768982,251.253052 427.300995,251.253052 451.832977,251.253052 
	C451.834991,251.526138 451.837006,251.799225 451.839020,252.072311 
	C444.059357,252.072311 436.279663,252.072311 428.000000,252.072510 
z"/>
<path fill="#9F5454" opacity="1.000000" stroke="none" 
	d="
M490.199524,252.001022 
	C482.217834,252.005356 474.645020,252.005356 467.072174,252.005356 
	C467.071014,251.668213 467.069855,251.331070 467.068665,250.993927 
	C474.116119,250.993927 481.163605,250.981415 488.210999,251.005539 
	C489.472534,251.009857 490.733551,251.165710 493.104492,251.327179 
	C491.532654,251.748779 491.070526,251.872726 490.199524,252.001022 
z"/>
<path fill="#D845BE" opacity="1.000000" stroke="none" 
	d="
M506.238647,779.993347 
	C506.429596,779.451660 506.881104,778.750061 507.672974,778.019470 
	C507.508636,778.604858 507.003906,779.219116 506.238647,779.993347 
z"/>
<path fill="#D845BE" opacity="1.000000" stroke="none" 
	d="
M509.224792,776.911743 
	C509.166168,776.722839 509.339264,776.437561 509.758179,776.074951 
	C509.821503,776.270203 509.639008,776.542847 509.224792,776.911743 
z"/>
<path fill="#D845BE" opacity="1.000000" stroke="none" 
	d="
M508.218903,777.911621 
	C508.165314,777.728149 508.342438,777.443481 508.763733,777.075928 
	C508.821838,777.265381 508.635742,777.537842 508.218903,777.911621 
z"/>
<path fill="#D845BE" opacity="1.000000" stroke="none" 
	d="
M504.217041,781.901733 
	C504.192352,781.733337 504.404846,781.445801 504.877869,781.065979 
	C504.910339,781.243225 504.682312,781.512878 504.217041,781.901733 
z"/>
<path fill="#D845BE" opacity="1.000000" stroke="none" 
	d="
M503.205994,782.905029 
	C503.170746,782.743103 503.361176,782.465637 503.786255,782.083984 
	C503.824463,782.249695 503.628021,782.519592 503.205994,782.905029 
z"/>
<path fill="#D845BE" opacity="1.000000" stroke="none" 
	d="
M502.206726,783.903259 
	C502.172882,783.743286 502.364014,783.467834 502.787842,783.086243 
	C502.824219,783.249329 502.627991,783.518494 502.206726,783.903259 
z"/>
<path fill="#D845BE" opacity="1.000000" stroke="none" 
	d="
M501.206482,784.899536 
	C501.175781,784.744019 501.367798,784.471558 501.789368,784.090332 
	C501.822357,784.248535 501.625793,784.515564 501.206482,784.899536 
z"/>
<path fill="#D845BE" opacity="1.000000" stroke="none" 
	d="
M500.220459,785.884521 
	C500.098389,785.666382 500.286896,785.399719 500.791687,785.090698 
	C500.903809,785.304443 500.711517,785.567017 500.220459,785.884521 
z"/>
<path fill="#D845BE" opacity="1.000000" stroke="none" 
	d="
M538.273071,735.295532 
	C548.360107,734.996582 558.740845,734.997620 569.598877,734.992188 
	C568.355591,735.322144 566.634094,735.951050 564.914490,735.945801 
	C556.131653,735.919067 547.349365,735.728638 538.273071,735.295532 
z"/>
</svg>